%TF.GenerationSoftware,KiCad,Pcbnew,7.0.5-0*%
%TF.CreationDate,2023-07-09T14:34:54+02:00*%
%TF.ProjectId,pirate-pcb,70697261-7465-42d7-9063-622e6b696361,1A*%
%TF.SameCoordinates,Original*%
%TF.FileFunction,Legend,Top*%
%TF.FilePolarity,Positive*%
%FSLAX46Y46*%
G04 Gerber Fmt 4.6, Leading zero omitted, Abs format (unit mm)*
G04 Created by KiCad (PCBNEW 7.0.5-0) date 2023-07-09 14:34:54*
%MOMM*%
%LPD*%
G01*
G04 APERTURE LIST*
%ADD10C,0.300000*%
%ADD11C,0.150000*%
%ADD12C,0.010000*%
%ADD13C,0.120000*%
G04 APERTURE END LIST*
D10*
X168878804Y-101597650D02*
X167735947Y-101597650D01*
X168307375Y-102169078D02*
X168307375Y-101026221D01*
D11*
X134468180Y-106860779D02*
X135468180Y-106860779D01*
X135468180Y-106860779D02*
X135468180Y-107241731D01*
X135468180Y-107241731D02*
X135420561Y-107336969D01*
X135420561Y-107336969D02*
X135372942Y-107384588D01*
X135372942Y-107384588D02*
X135277704Y-107432207D01*
X135277704Y-107432207D02*
X135134847Y-107432207D01*
X135134847Y-107432207D02*
X135039609Y-107384588D01*
X135039609Y-107384588D02*
X134991990Y-107336969D01*
X134991990Y-107336969D02*
X134944371Y-107241731D01*
X134944371Y-107241731D02*
X134944371Y-106860779D01*
X134468180Y-107860779D02*
X135468180Y-107860779D01*
X134468180Y-108908397D02*
X134944371Y-108575064D01*
X134468180Y-108336969D02*
X135468180Y-108336969D01*
X135468180Y-108336969D02*
X135468180Y-108717921D01*
X135468180Y-108717921D02*
X135420561Y-108813159D01*
X135420561Y-108813159D02*
X135372942Y-108860778D01*
X135372942Y-108860778D02*
X135277704Y-108908397D01*
X135277704Y-108908397D02*
X135134847Y-108908397D01*
X135134847Y-108908397D02*
X135039609Y-108860778D01*
X135039609Y-108860778D02*
X134991990Y-108813159D01*
X134991990Y-108813159D02*
X134944371Y-108717921D01*
X134944371Y-108717921D02*
X134944371Y-108336969D01*
X134753895Y-109289350D02*
X134753895Y-109765540D01*
X134468180Y-109194112D02*
X135468180Y-109527445D01*
X135468180Y-109527445D02*
X134468180Y-109860778D01*
X135468180Y-110051255D02*
X135468180Y-110622683D01*
X134468180Y-110336969D02*
X135468180Y-110336969D01*
X134991990Y-110956017D02*
X134991990Y-111289350D01*
X134468180Y-111432207D02*
X134468180Y-110956017D01*
X134468180Y-110956017D02*
X135468180Y-110956017D01*
X135468180Y-110956017D02*
X135468180Y-111432207D01*
X134849133Y-111860779D02*
X134849133Y-112622684D01*
X134468180Y-113098874D02*
X135468180Y-113098874D01*
X135468180Y-113098874D02*
X135468180Y-113479826D01*
X135468180Y-113479826D02*
X135420561Y-113575064D01*
X135420561Y-113575064D02*
X135372942Y-113622683D01*
X135372942Y-113622683D02*
X135277704Y-113670302D01*
X135277704Y-113670302D02*
X135134847Y-113670302D01*
X135134847Y-113670302D02*
X135039609Y-113622683D01*
X135039609Y-113622683D02*
X134991990Y-113575064D01*
X134991990Y-113575064D02*
X134944371Y-113479826D01*
X134944371Y-113479826D02*
X134944371Y-113098874D01*
X134563419Y-114670302D02*
X134515800Y-114622683D01*
X134515800Y-114622683D02*
X134468180Y-114479826D01*
X134468180Y-114479826D02*
X134468180Y-114384588D01*
X134468180Y-114384588D02*
X134515800Y-114241731D01*
X134515800Y-114241731D02*
X134611038Y-114146493D01*
X134611038Y-114146493D02*
X134706276Y-114098874D01*
X134706276Y-114098874D02*
X134896752Y-114051255D01*
X134896752Y-114051255D02*
X135039609Y-114051255D01*
X135039609Y-114051255D02*
X135230085Y-114098874D01*
X135230085Y-114098874D02*
X135325323Y-114146493D01*
X135325323Y-114146493D02*
X135420561Y-114241731D01*
X135420561Y-114241731D02*
X135468180Y-114384588D01*
X135468180Y-114384588D02*
X135468180Y-114479826D01*
X135468180Y-114479826D02*
X135420561Y-114622683D01*
X135420561Y-114622683D02*
X135372942Y-114670302D01*
X134991990Y-115432207D02*
X134944371Y-115575064D01*
X134944371Y-115575064D02*
X134896752Y-115622683D01*
X134896752Y-115622683D02*
X134801514Y-115670302D01*
X134801514Y-115670302D02*
X134658657Y-115670302D01*
X134658657Y-115670302D02*
X134563419Y-115622683D01*
X134563419Y-115622683D02*
X134515800Y-115575064D01*
X134515800Y-115575064D02*
X134468180Y-115479826D01*
X134468180Y-115479826D02*
X134468180Y-115098874D01*
X134468180Y-115098874D02*
X135468180Y-115098874D01*
X135468180Y-115098874D02*
X135468180Y-115432207D01*
X135468180Y-115432207D02*
X135420561Y-115527445D01*
X135420561Y-115527445D02*
X135372942Y-115575064D01*
X135372942Y-115575064D02*
X135277704Y-115622683D01*
X135277704Y-115622683D02*
X135182466Y-115622683D01*
X135182466Y-115622683D02*
X135087228Y-115575064D01*
X135087228Y-115575064D02*
X135039609Y-115527445D01*
X135039609Y-115527445D02*
X134991990Y-115432207D01*
X134991990Y-115432207D02*
X134991990Y-115098874D01*
X132858180Y-107432207D02*
X133334371Y-107098874D01*
X132858180Y-106860779D02*
X133858180Y-106860779D01*
X133858180Y-106860779D02*
X133858180Y-107241731D01*
X133858180Y-107241731D02*
X133810561Y-107336969D01*
X133810561Y-107336969D02*
X133762942Y-107384588D01*
X133762942Y-107384588D02*
X133667704Y-107432207D01*
X133667704Y-107432207D02*
X133524847Y-107432207D01*
X133524847Y-107432207D02*
X133429609Y-107384588D01*
X133429609Y-107384588D02*
X133381990Y-107336969D01*
X133381990Y-107336969D02*
X133334371Y-107241731D01*
X133334371Y-107241731D02*
X133334371Y-106860779D01*
X133381990Y-107860779D02*
X133381990Y-108194112D01*
X132858180Y-108336969D02*
X132858180Y-107860779D01*
X132858180Y-107860779D02*
X133858180Y-107860779D01*
X133858180Y-107860779D02*
X133858180Y-108336969D01*
X133858180Y-108622684D02*
X132858180Y-108956017D01*
X132858180Y-108956017D02*
X133858180Y-109289350D01*
X132858180Y-110908398D02*
X132858180Y-110336970D01*
X132858180Y-110622684D02*
X133858180Y-110622684D01*
X133858180Y-110622684D02*
X133715323Y-110527446D01*
X133715323Y-110527446D02*
X133620085Y-110432208D01*
X133620085Y-110432208D02*
X133572466Y-110336970D01*
X133143895Y-111289351D02*
X133143895Y-111765541D01*
X132858180Y-111194113D02*
X133858180Y-111527446D01*
X133858180Y-111527446D02*
X132858180Y-111860779D01*
X119602684Y-124523152D02*
X118840779Y-124808866D01*
X118840779Y-124808866D02*
X119602684Y-125094580D01*
X120507445Y-124523152D02*
X120507445Y-125332676D01*
X120507445Y-125332676D02*
X120459826Y-125427914D01*
X120459826Y-125427914D02*
X120412207Y-125475533D01*
X120412207Y-125475533D02*
X120316969Y-125523152D01*
X120316969Y-125523152D02*
X120174112Y-125523152D01*
X120174112Y-125523152D02*
X120078874Y-125475533D01*
X120507445Y-125142200D02*
X120412207Y-125189819D01*
X120412207Y-125189819D02*
X120221731Y-125189819D01*
X120221731Y-125189819D02*
X120126493Y-125142200D01*
X120126493Y-125142200D02*
X120078874Y-125094580D01*
X120078874Y-125094580D02*
X120031255Y-124999342D01*
X120031255Y-124999342D02*
X120031255Y-124713628D01*
X120031255Y-124713628D02*
X120078874Y-124618390D01*
X120078874Y-124618390D02*
X120126493Y-124570771D01*
X120126493Y-124570771D02*
X120221731Y-124523152D01*
X120221731Y-124523152D02*
X120412207Y-124523152D01*
X120412207Y-124523152D02*
X120507445Y-124570771D01*
X121412207Y-125189819D02*
X121412207Y-124666009D01*
X121412207Y-124666009D02*
X121364588Y-124570771D01*
X121364588Y-124570771D02*
X121269350Y-124523152D01*
X121269350Y-124523152D02*
X121078874Y-124523152D01*
X121078874Y-124523152D02*
X120983636Y-124570771D01*
X121412207Y-125142200D02*
X121316969Y-125189819D01*
X121316969Y-125189819D02*
X121078874Y-125189819D01*
X121078874Y-125189819D02*
X120983636Y-125142200D01*
X120983636Y-125142200D02*
X120936017Y-125046961D01*
X120936017Y-125046961D02*
X120936017Y-124951723D01*
X120936017Y-124951723D02*
X120983636Y-124856485D01*
X120983636Y-124856485D02*
X121078874Y-124808866D01*
X121078874Y-124808866D02*
X121316969Y-124808866D01*
X121316969Y-124808866D02*
X121412207Y-124761247D01*
X121888398Y-125189819D02*
X121888398Y-124189819D01*
X121888398Y-124570771D02*
X121983636Y-124523152D01*
X121983636Y-124523152D02*
X122174112Y-124523152D01*
X122174112Y-124523152D02*
X122269350Y-124570771D01*
X122269350Y-124570771D02*
X122316969Y-124618390D01*
X122316969Y-124618390D02*
X122364588Y-124713628D01*
X122364588Y-124713628D02*
X122364588Y-124999342D01*
X122364588Y-124999342D02*
X122316969Y-125094580D01*
X122316969Y-125094580D02*
X122269350Y-125142200D01*
X122269350Y-125142200D02*
X122174112Y-125189819D01*
X122174112Y-125189819D02*
X121983636Y-125189819D01*
X121983636Y-125189819D02*
X121888398Y-125142200D01*
X122793160Y-124523152D02*
X123555065Y-124808866D01*
X123555065Y-124808866D02*
X122793160Y-125094580D01*
X175130666Y-124015152D02*
X175368761Y-124681819D01*
X175606856Y-124015152D02*
X175368761Y-124681819D01*
X175368761Y-124681819D02*
X175273523Y-124919914D01*
X175273523Y-124919914D02*
X175225904Y-124967533D01*
X175225904Y-124967533D02*
X175130666Y-125015152D01*
X175987809Y-124300866D02*
X176749714Y-124300866D01*
X177083047Y-124015152D02*
X177463999Y-124015152D01*
X177225904Y-124681819D02*
X177225904Y-123824676D01*
X177225904Y-123824676D02*
X177273523Y-123729438D01*
X177273523Y-123729438D02*
X177368761Y-123681819D01*
X177368761Y-123681819D02*
X177463999Y-123681819D01*
X178225904Y-124681819D02*
X178225904Y-124158009D01*
X178225904Y-124158009D02*
X178178285Y-124062771D01*
X178178285Y-124062771D02*
X178083047Y-124015152D01*
X178083047Y-124015152D02*
X177892571Y-124015152D01*
X177892571Y-124015152D02*
X177797333Y-124062771D01*
X178225904Y-124634200D02*
X178130666Y-124681819D01*
X178130666Y-124681819D02*
X177892571Y-124681819D01*
X177892571Y-124681819D02*
X177797333Y-124634200D01*
X177797333Y-124634200D02*
X177749714Y-124538961D01*
X177749714Y-124538961D02*
X177749714Y-124443723D01*
X177749714Y-124443723D02*
X177797333Y-124348485D01*
X177797333Y-124348485D02*
X177892571Y-124300866D01*
X177892571Y-124300866D02*
X178130666Y-124300866D01*
X178130666Y-124300866D02*
X178225904Y-124253247D01*
X178702095Y-124681819D02*
X178702095Y-123681819D01*
X178702095Y-124062771D02*
X178797333Y-124015152D01*
X178797333Y-124015152D02*
X178987809Y-124015152D01*
X178987809Y-124015152D02*
X179083047Y-124062771D01*
X179083047Y-124062771D02*
X179130666Y-124110390D01*
X179130666Y-124110390D02*
X179178285Y-124205628D01*
X179178285Y-124205628D02*
X179178285Y-124491342D01*
X179178285Y-124491342D02*
X179130666Y-124586580D01*
X179130666Y-124586580D02*
X179083047Y-124634200D01*
X179083047Y-124634200D02*
X178987809Y-124681819D01*
X178987809Y-124681819D02*
X178797333Y-124681819D01*
X178797333Y-124681819D02*
X178702095Y-124634200D01*
X179749714Y-124681819D02*
X179654476Y-124634200D01*
X179654476Y-124634200D02*
X179606857Y-124538961D01*
X179606857Y-124538961D02*
X179606857Y-123681819D01*
X180559238Y-124681819D02*
X180559238Y-124158009D01*
X180559238Y-124158009D02*
X180511619Y-124062771D01*
X180511619Y-124062771D02*
X180416381Y-124015152D01*
X180416381Y-124015152D02*
X180225905Y-124015152D01*
X180225905Y-124015152D02*
X180130667Y-124062771D01*
X180559238Y-124634200D02*
X180464000Y-124681819D01*
X180464000Y-124681819D02*
X180225905Y-124681819D01*
X180225905Y-124681819D02*
X180130667Y-124634200D01*
X180130667Y-124634200D02*
X180083048Y-124538961D01*
X180083048Y-124538961D02*
X180083048Y-124443723D01*
X180083048Y-124443723D02*
X180130667Y-124348485D01*
X180130667Y-124348485D02*
X180225905Y-124300866D01*
X180225905Y-124300866D02*
X180464000Y-124300866D01*
X180464000Y-124300866D02*
X180559238Y-124253247D01*
X181035429Y-124681819D02*
X181035429Y-123681819D01*
X181035429Y-124062771D02*
X181130667Y-124015152D01*
X181130667Y-124015152D02*
X181321143Y-124015152D01*
X181321143Y-124015152D02*
X181416381Y-124062771D01*
X181416381Y-124062771D02*
X181464000Y-124110390D01*
X181464000Y-124110390D02*
X181511619Y-124205628D01*
X181511619Y-124205628D02*
X181511619Y-124491342D01*
X181511619Y-124491342D02*
X181464000Y-124586580D01*
X181464000Y-124586580D02*
X181416381Y-124634200D01*
X181416381Y-124634200D02*
X181321143Y-124681819D01*
X181321143Y-124681819D02*
X181130667Y-124681819D01*
X181130667Y-124681819D02*
X181035429Y-124634200D01*
X181940191Y-124586580D02*
X181987810Y-124634200D01*
X181987810Y-124634200D02*
X181940191Y-124681819D01*
X181940191Y-124681819D02*
X181892572Y-124634200D01*
X181892572Y-124634200D02*
X181940191Y-124586580D01*
X181940191Y-124586580D02*
X181940191Y-124681819D01*
X182844952Y-124634200D02*
X182749714Y-124681819D01*
X182749714Y-124681819D02*
X182559238Y-124681819D01*
X182559238Y-124681819D02*
X182464000Y-124634200D01*
X182464000Y-124634200D02*
X182416381Y-124586580D01*
X182416381Y-124586580D02*
X182368762Y-124491342D01*
X182368762Y-124491342D02*
X182368762Y-124205628D01*
X182368762Y-124205628D02*
X182416381Y-124110390D01*
X182416381Y-124110390D02*
X182464000Y-124062771D01*
X182464000Y-124062771D02*
X182559238Y-124015152D01*
X182559238Y-124015152D02*
X182749714Y-124015152D01*
X182749714Y-124015152D02*
X182844952Y-124062771D01*
X183273524Y-124681819D02*
X183273524Y-123681819D01*
X183702095Y-124681819D02*
X183702095Y-124158009D01*
X183702095Y-124158009D02*
X183654476Y-124062771D01*
X183654476Y-124062771D02*
X183559238Y-124015152D01*
X183559238Y-124015152D02*
X183416381Y-124015152D01*
X183416381Y-124015152D02*
X183321143Y-124062771D01*
X183321143Y-124062771D02*
X183273524Y-124110390D01*
D10*
X166369131Y-101597650D02*
X165226274Y-101597650D01*
D11*
%TO.C,Q3*%
X124375057Y-117492738D02*
X124327438Y-117587976D01*
X124327438Y-117587976D02*
X124232200Y-117683214D01*
X124232200Y-117683214D02*
X124089342Y-117826071D01*
X124089342Y-117826071D02*
X124041723Y-117921309D01*
X124041723Y-117921309D02*
X124041723Y-118016547D01*
X124279819Y-117968928D02*
X124232200Y-118064166D01*
X124232200Y-118064166D02*
X124136961Y-118159404D01*
X124136961Y-118159404D02*
X123946485Y-118207023D01*
X123946485Y-118207023D02*
X123613152Y-118207023D01*
X123613152Y-118207023D02*
X123422676Y-118159404D01*
X123422676Y-118159404D02*
X123327438Y-118064166D01*
X123327438Y-118064166D02*
X123279819Y-117968928D01*
X123279819Y-117968928D02*
X123279819Y-117778452D01*
X123279819Y-117778452D02*
X123327438Y-117683214D01*
X123327438Y-117683214D02*
X123422676Y-117587976D01*
X123422676Y-117587976D02*
X123613152Y-117540357D01*
X123613152Y-117540357D02*
X123946485Y-117540357D01*
X123946485Y-117540357D02*
X124136961Y-117587976D01*
X124136961Y-117587976D02*
X124232200Y-117683214D01*
X124232200Y-117683214D02*
X124279819Y-117778452D01*
X124279819Y-117778452D02*
X124279819Y-117968928D01*
X123279819Y-117207023D02*
X123279819Y-116587976D01*
X123279819Y-116587976D02*
X123660771Y-116921309D01*
X123660771Y-116921309D02*
X123660771Y-116778452D01*
X123660771Y-116778452D02*
X123708390Y-116683214D01*
X123708390Y-116683214D02*
X123756009Y-116635595D01*
X123756009Y-116635595D02*
X123851247Y-116587976D01*
X123851247Y-116587976D02*
X124089342Y-116587976D01*
X124089342Y-116587976D02*
X124184580Y-116635595D01*
X124184580Y-116635595D02*
X124232200Y-116683214D01*
X124232200Y-116683214D02*
X124279819Y-116778452D01*
X124279819Y-116778452D02*
X124279819Y-117064166D01*
X124279819Y-117064166D02*
X124232200Y-117159404D01*
X124232200Y-117159404D02*
X124184580Y-117207023D01*
%TO.C,R11*%
X174863631Y-106564451D02*
X174387440Y-106897784D01*
X174863631Y-107135879D02*
X173863631Y-107135879D01*
X173863631Y-107135879D02*
X173863631Y-106754927D01*
X173863631Y-106754927D02*
X173911250Y-106659689D01*
X173911250Y-106659689D02*
X173958869Y-106612070D01*
X173958869Y-106612070D02*
X174054107Y-106564451D01*
X174054107Y-106564451D02*
X174196964Y-106564451D01*
X174196964Y-106564451D02*
X174292202Y-106612070D01*
X174292202Y-106612070D02*
X174339821Y-106659689D01*
X174339821Y-106659689D02*
X174387440Y-106754927D01*
X174387440Y-106754927D02*
X174387440Y-107135879D01*
X174863631Y-105612070D02*
X174863631Y-106183498D01*
X174863631Y-105897784D02*
X173863631Y-105897784D01*
X173863631Y-105897784D02*
X174006488Y-105993022D01*
X174006488Y-105993022D02*
X174101726Y-106088260D01*
X174101726Y-106088260D02*
X174149345Y-106183498D01*
X174863631Y-104659689D02*
X174863631Y-105231117D01*
X174863631Y-104945403D02*
X173863631Y-104945403D01*
X173863631Y-104945403D02*
X174006488Y-105040641D01*
X174006488Y-105040641D02*
X174101726Y-105135879D01*
X174101726Y-105135879D02*
X174149345Y-105231117D01*
%TO.C,Q4*%
X120210057Y-107937738D02*
X120162438Y-108032976D01*
X120162438Y-108032976D02*
X120067200Y-108128214D01*
X120067200Y-108128214D02*
X119924342Y-108271071D01*
X119924342Y-108271071D02*
X119876723Y-108366309D01*
X119876723Y-108366309D02*
X119876723Y-108461547D01*
X120114819Y-108413928D02*
X120067200Y-108509166D01*
X120067200Y-108509166D02*
X119971961Y-108604404D01*
X119971961Y-108604404D02*
X119781485Y-108652023D01*
X119781485Y-108652023D02*
X119448152Y-108652023D01*
X119448152Y-108652023D02*
X119257676Y-108604404D01*
X119257676Y-108604404D02*
X119162438Y-108509166D01*
X119162438Y-108509166D02*
X119114819Y-108413928D01*
X119114819Y-108413928D02*
X119114819Y-108223452D01*
X119114819Y-108223452D02*
X119162438Y-108128214D01*
X119162438Y-108128214D02*
X119257676Y-108032976D01*
X119257676Y-108032976D02*
X119448152Y-107985357D01*
X119448152Y-107985357D02*
X119781485Y-107985357D01*
X119781485Y-107985357D02*
X119971961Y-108032976D01*
X119971961Y-108032976D02*
X120067200Y-108128214D01*
X120067200Y-108128214D02*
X120114819Y-108223452D01*
X120114819Y-108223452D02*
X120114819Y-108413928D01*
X119448152Y-107128214D02*
X120114819Y-107128214D01*
X119067200Y-107366309D02*
X119781485Y-107604404D01*
X119781485Y-107604404D02*
X119781485Y-106985357D01*
%TO.C,R12*%
X174751245Y-112715127D02*
X174417912Y-112238936D01*
X174179817Y-112715127D02*
X174179817Y-111715127D01*
X174179817Y-111715127D02*
X174560769Y-111715127D01*
X174560769Y-111715127D02*
X174656007Y-111762746D01*
X174656007Y-111762746D02*
X174703626Y-111810365D01*
X174703626Y-111810365D02*
X174751245Y-111905603D01*
X174751245Y-111905603D02*
X174751245Y-112048460D01*
X174751245Y-112048460D02*
X174703626Y-112143698D01*
X174703626Y-112143698D02*
X174656007Y-112191317D01*
X174656007Y-112191317D02*
X174560769Y-112238936D01*
X174560769Y-112238936D02*
X174179817Y-112238936D01*
X175703626Y-112715127D02*
X175132198Y-112715127D01*
X175417912Y-112715127D02*
X175417912Y-111715127D01*
X175417912Y-111715127D02*
X175322674Y-111857984D01*
X175322674Y-111857984D02*
X175227436Y-111953222D01*
X175227436Y-111953222D02*
X175132198Y-112000841D01*
X176084579Y-111810365D02*
X176132198Y-111762746D01*
X176132198Y-111762746D02*
X176227436Y-111715127D01*
X176227436Y-111715127D02*
X176465531Y-111715127D01*
X176465531Y-111715127D02*
X176560769Y-111762746D01*
X176560769Y-111762746D02*
X176608388Y-111810365D01*
X176608388Y-111810365D02*
X176656007Y-111905603D01*
X176656007Y-111905603D02*
X176656007Y-112000841D01*
X176656007Y-112000841D02*
X176608388Y-112143698D01*
X176608388Y-112143698D02*
X176036960Y-112715127D01*
X176036960Y-112715127D02*
X176656007Y-112715127D01*
%TO.C,J7*%
X125534819Y-89458333D02*
X126249104Y-89458333D01*
X126249104Y-89458333D02*
X126391961Y-89505952D01*
X126391961Y-89505952D02*
X126487200Y-89601190D01*
X126487200Y-89601190D02*
X126534819Y-89744047D01*
X126534819Y-89744047D02*
X126534819Y-89839285D01*
X125534819Y-89077380D02*
X125534819Y-88410714D01*
X125534819Y-88410714D02*
X126534819Y-88839285D01*
X126918095Y-86357200D02*
X127060952Y-86404819D01*
X127060952Y-86404819D02*
X127299047Y-86404819D01*
X127299047Y-86404819D02*
X127394285Y-86357200D01*
X127394285Y-86357200D02*
X127441904Y-86309580D01*
X127441904Y-86309580D02*
X127489523Y-86214342D01*
X127489523Y-86214342D02*
X127489523Y-86119104D01*
X127489523Y-86119104D02*
X127441904Y-86023866D01*
X127441904Y-86023866D02*
X127394285Y-85976247D01*
X127394285Y-85976247D02*
X127299047Y-85928628D01*
X127299047Y-85928628D02*
X127108571Y-85881009D01*
X127108571Y-85881009D02*
X127013333Y-85833390D01*
X127013333Y-85833390D02*
X126965714Y-85785771D01*
X126965714Y-85785771D02*
X126918095Y-85690533D01*
X126918095Y-85690533D02*
X126918095Y-85595295D01*
X126918095Y-85595295D02*
X126965714Y-85500057D01*
X126965714Y-85500057D02*
X127013333Y-85452438D01*
X127013333Y-85452438D02*
X127108571Y-85404819D01*
X127108571Y-85404819D02*
X127346666Y-85404819D01*
X127346666Y-85404819D02*
X127489523Y-85452438D01*
X127918095Y-85738152D02*
X127918095Y-86738152D01*
X127918095Y-85785771D02*
X128013333Y-85738152D01*
X128013333Y-85738152D02*
X128203809Y-85738152D01*
X128203809Y-85738152D02*
X128299047Y-85785771D01*
X128299047Y-85785771D02*
X128346666Y-85833390D01*
X128346666Y-85833390D02*
X128394285Y-85928628D01*
X128394285Y-85928628D02*
X128394285Y-86214342D01*
X128394285Y-86214342D02*
X128346666Y-86309580D01*
X128346666Y-86309580D02*
X128299047Y-86357200D01*
X128299047Y-86357200D02*
X128203809Y-86404819D01*
X128203809Y-86404819D02*
X128013333Y-86404819D01*
X128013333Y-86404819D02*
X127918095Y-86357200D01*
X129203809Y-86357200D02*
X129108571Y-86404819D01*
X129108571Y-86404819D02*
X128918095Y-86404819D01*
X128918095Y-86404819D02*
X128822857Y-86357200D01*
X128822857Y-86357200D02*
X128775238Y-86261961D01*
X128775238Y-86261961D02*
X128775238Y-85881009D01*
X128775238Y-85881009D02*
X128822857Y-85785771D01*
X128822857Y-85785771D02*
X128918095Y-85738152D01*
X128918095Y-85738152D02*
X129108571Y-85738152D01*
X129108571Y-85738152D02*
X129203809Y-85785771D01*
X129203809Y-85785771D02*
X129251428Y-85881009D01*
X129251428Y-85881009D02*
X129251428Y-85976247D01*
X129251428Y-85976247D02*
X128775238Y-86071485D01*
X130108571Y-86404819D02*
X130108571Y-85881009D01*
X130108571Y-85881009D02*
X130060952Y-85785771D01*
X130060952Y-85785771D02*
X129965714Y-85738152D01*
X129965714Y-85738152D02*
X129775238Y-85738152D01*
X129775238Y-85738152D02*
X129680000Y-85785771D01*
X130108571Y-86357200D02*
X130013333Y-86404819D01*
X130013333Y-86404819D02*
X129775238Y-86404819D01*
X129775238Y-86404819D02*
X129680000Y-86357200D01*
X129680000Y-86357200D02*
X129632381Y-86261961D01*
X129632381Y-86261961D02*
X129632381Y-86166723D01*
X129632381Y-86166723D02*
X129680000Y-86071485D01*
X129680000Y-86071485D02*
X129775238Y-86023866D01*
X129775238Y-86023866D02*
X130013333Y-86023866D01*
X130013333Y-86023866D02*
X130108571Y-85976247D01*
X130584762Y-86404819D02*
X130584762Y-85404819D01*
X130680000Y-86023866D02*
X130965714Y-86404819D01*
X130965714Y-85738152D02*
X130584762Y-86119104D01*
X131775238Y-86357200D02*
X131680000Y-86404819D01*
X131680000Y-86404819D02*
X131489524Y-86404819D01*
X131489524Y-86404819D02*
X131394286Y-86357200D01*
X131394286Y-86357200D02*
X131346667Y-86261961D01*
X131346667Y-86261961D02*
X131346667Y-85881009D01*
X131346667Y-85881009D02*
X131394286Y-85785771D01*
X131394286Y-85785771D02*
X131489524Y-85738152D01*
X131489524Y-85738152D02*
X131680000Y-85738152D01*
X131680000Y-85738152D02*
X131775238Y-85785771D01*
X131775238Y-85785771D02*
X131822857Y-85881009D01*
X131822857Y-85881009D02*
X131822857Y-85976247D01*
X131822857Y-85976247D02*
X131346667Y-86071485D01*
X132251429Y-86404819D02*
X132251429Y-85738152D01*
X132251429Y-85928628D02*
X132299048Y-85833390D01*
X132299048Y-85833390D02*
X132346667Y-85785771D01*
X132346667Y-85785771D02*
X132441905Y-85738152D01*
X132441905Y-85738152D02*
X132537143Y-85738152D01*
%TO.C,D7*%
X122496905Y-97794819D02*
X122496905Y-96794819D01*
X122496905Y-96794819D02*
X122735000Y-96794819D01*
X122735000Y-96794819D02*
X122877857Y-96842438D01*
X122877857Y-96842438D02*
X122973095Y-96937676D01*
X122973095Y-96937676D02*
X123020714Y-97032914D01*
X123020714Y-97032914D02*
X123068333Y-97223390D01*
X123068333Y-97223390D02*
X123068333Y-97366247D01*
X123068333Y-97366247D02*
X123020714Y-97556723D01*
X123020714Y-97556723D02*
X122973095Y-97651961D01*
X122973095Y-97651961D02*
X122877857Y-97747200D01*
X122877857Y-97747200D02*
X122735000Y-97794819D01*
X122735000Y-97794819D02*
X122496905Y-97794819D01*
X123401667Y-96794819D02*
X124068333Y-96794819D01*
X124068333Y-96794819D02*
X123639762Y-97794819D01*
%TO.C,R2*%
X178013819Y-99040436D02*
X177537628Y-99373769D01*
X178013819Y-99611864D02*
X177013819Y-99611864D01*
X177013819Y-99611864D02*
X177013819Y-99230912D01*
X177013819Y-99230912D02*
X177061438Y-99135674D01*
X177061438Y-99135674D02*
X177109057Y-99088055D01*
X177109057Y-99088055D02*
X177204295Y-99040436D01*
X177204295Y-99040436D02*
X177347152Y-99040436D01*
X177347152Y-99040436D02*
X177442390Y-99088055D01*
X177442390Y-99088055D02*
X177490009Y-99135674D01*
X177490009Y-99135674D02*
X177537628Y-99230912D01*
X177537628Y-99230912D02*
X177537628Y-99611864D01*
X177109057Y-98659483D02*
X177061438Y-98611864D01*
X177061438Y-98611864D02*
X177013819Y-98516626D01*
X177013819Y-98516626D02*
X177013819Y-98278531D01*
X177013819Y-98278531D02*
X177061438Y-98183293D01*
X177061438Y-98183293D02*
X177109057Y-98135674D01*
X177109057Y-98135674D02*
X177204295Y-98088055D01*
X177204295Y-98088055D02*
X177299533Y-98088055D01*
X177299533Y-98088055D02*
X177442390Y-98135674D01*
X177442390Y-98135674D02*
X178013819Y-98707102D01*
X178013819Y-98707102D02*
X178013819Y-98088055D01*
%TO.C,D4*%
X128941905Y-113709819D02*
X128941905Y-112709819D01*
X128941905Y-112709819D02*
X129180000Y-112709819D01*
X129180000Y-112709819D02*
X129322857Y-112757438D01*
X129322857Y-112757438D02*
X129418095Y-112852676D01*
X129418095Y-112852676D02*
X129465714Y-112947914D01*
X129465714Y-112947914D02*
X129513333Y-113138390D01*
X129513333Y-113138390D02*
X129513333Y-113281247D01*
X129513333Y-113281247D02*
X129465714Y-113471723D01*
X129465714Y-113471723D02*
X129418095Y-113566961D01*
X129418095Y-113566961D02*
X129322857Y-113662200D01*
X129322857Y-113662200D02*
X129180000Y-113709819D01*
X129180000Y-113709819D02*
X128941905Y-113709819D01*
X130370476Y-113043152D02*
X130370476Y-113709819D01*
X130132381Y-112662200D02*
X129894286Y-113376485D01*
X129894286Y-113376485D02*
X130513333Y-113376485D01*
%TO.C,D3*%
X183601819Y-96848094D02*
X182601819Y-96848094D01*
X182601819Y-96848094D02*
X182601819Y-96609999D01*
X182601819Y-96609999D02*
X182649438Y-96467142D01*
X182649438Y-96467142D02*
X182744676Y-96371904D01*
X182744676Y-96371904D02*
X182839914Y-96324285D01*
X182839914Y-96324285D02*
X183030390Y-96276666D01*
X183030390Y-96276666D02*
X183173247Y-96276666D01*
X183173247Y-96276666D02*
X183363723Y-96324285D01*
X183363723Y-96324285D02*
X183458961Y-96371904D01*
X183458961Y-96371904D02*
X183554200Y-96467142D01*
X183554200Y-96467142D02*
X183601819Y-96609999D01*
X183601819Y-96609999D02*
X183601819Y-96848094D01*
X182601819Y-95943332D02*
X182601819Y-95324285D01*
X182601819Y-95324285D02*
X182982771Y-95657618D01*
X182982771Y-95657618D02*
X182982771Y-95514761D01*
X182982771Y-95514761D02*
X183030390Y-95419523D01*
X183030390Y-95419523D02*
X183078009Y-95371904D01*
X183078009Y-95371904D02*
X183173247Y-95324285D01*
X183173247Y-95324285D02*
X183411342Y-95324285D01*
X183411342Y-95324285D02*
X183506580Y-95371904D01*
X183506580Y-95371904D02*
X183554200Y-95419523D01*
X183554200Y-95419523D02*
X183601819Y-95514761D01*
X183601819Y-95514761D02*
X183601819Y-95800475D01*
X183601819Y-95800475D02*
X183554200Y-95895713D01*
X183554200Y-95895713D02*
X183506580Y-95943332D01*
%TO.C,R10*%
X120504642Y-114504819D02*
X120171309Y-114028628D01*
X119933214Y-114504819D02*
X119933214Y-113504819D01*
X119933214Y-113504819D02*
X120314166Y-113504819D01*
X120314166Y-113504819D02*
X120409404Y-113552438D01*
X120409404Y-113552438D02*
X120457023Y-113600057D01*
X120457023Y-113600057D02*
X120504642Y-113695295D01*
X120504642Y-113695295D02*
X120504642Y-113838152D01*
X120504642Y-113838152D02*
X120457023Y-113933390D01*
X120457023Y-113933390D02*
X120409404Y-113981009D01*
X120409404Y-113981009D02*
X120314166Y-114028628D01*
X120314166Y-114028628D02*
X119933214Y-114028628D01*
X121457023Y-114504819D02*
X120885595Y-114504819D01*
X121171309Y-114504819D02*
X121171309Y-113504819D01*
X121171309Y-113504819D02*
X121076071Y-113647676D01*
X121076071Y-113647676D02*
X120980833Y-113742914D01*
X120980833Y-113742914D02*
X120885595Y-113790533D01*
X122076071Y-113504819D02*
X122171309Y-113504819D01*
X122171309Y-113504819D02*
X122266547Y-113552438D01*
X122266547Y-113552438D02*
X122314166Y-113600057D01*
X122314166Y-113600057D02*
X122361785Y-113695295D01*
X122361785Y-113695295D02*
X122409404Y-113885771D01*
X122409404Y-113885771D02*
X122409404Y-114123866D01*
X122409404Y-114123866D02*
X122361785Y-114314342D01*
X122361785Y-114314342D02*
X122314166Y-114409580D01*
X122314166Y-114409580D02*
X122266547Y-114457200D01*
X122266547Y-114457200D02*
X122171309Y-114504819D01*
X122171309Y-114504819D02*
X122076071Y-114504819D01*
X122076071Y-114504819D02*
X121980833Y-114457200D01*
X121980833Y-114457200D02*
X121933214Y-114409580D01*
X121933214Y-114409580D02*
X121885595Y-114314342D01*
X121885595Y-114314342D02*
X121837976Y-114123866D01*
X121837976Y-114123866D02*
X121837976Y-113885771D01*
X121837976Y-113885771D02*
X121885595Y-113695295D01*
X121885595Y-113695295D02*
X121933214Y-113600057D01*
X121933214Y-113600057D02*
X121980833Y-113552438D01*
X121980833Y-113552438D02*
X122076071Y-113504819D01*
%TO.C,R1*%
X183236915Y-92383559D02*
X182760724Y-92716892D01*
X183236915Y-92954987D02*
X182236915Y-92954987D01*
X182236915Y-92954987D02*
X182236915Y-92574035D01*
X182236915Y-92574035D02*
X182284534Y-92478797D01*
X182284534Y-92478797D02*
X182332153Y-92431178D01*
X182332153Y-92431178D02*
X182427391Y-92383559D01*
X182427391Y-92383559D02*
X182570248Y-92383559D01*
X182570248Y-92383559D02*
X182665486Y-92431178D01*
X182665486Y-92431178D02*
X182713105Y-92478797D01*
X182713105Y-92478797D02*
X182760724Y-92574035D01*
X182760724Y-92574035D02*
X182760724Y-92954987D01*
X183236915Y-91431178D02*
X183236915Y-92002606D01*
X183236915Y-91716892D02*
X182236915Y-91716892D01*
X182236915Y-91716892D02*
X182379772Y-91812130D01*
X182379772Y-91812130D02*
X182475010Y-91907368D01*
X182475010Y-91907368D02*
X182522629Y-92002606D01*
%TO.C,D5*%
X173314819Y-113993094D02*
X172314819Y-113993094D01*
X172314819Y-113993094D02*
X172314819Y-113754999D01*
X172314819Y-113754999D02*
X172362438Y-113612142D01*
X172362438Y-113612142D02*
X172457676Y-113516904D01*
X172457676Y-113516904D02*
X172552914Y-113469285D01*
X172552914Y-113469285D02*
X172743390Y-113421666D01*
X172743390Y-113421666D02*
X172886247Y-113421666D01*
X172886247Y-113421666D02*
X173076723Y-113469285D01*
X173076723Y-113469285D02*
X173171961Y-113516904D01*
X173171961Y-113516904D02*
X173267200Y-113612142D01*
X173267200Y-113612142D02*
X173314819Y-113754999D01*
X173314819Y-113754999D02*
X173314819Y-113993094D01*
X172314819Y-112516904D02*
X172314819Y-112993094D01*
X172314819Y-112993094D02*
X172791009Y-113040713D01*
X172791009Y-113040713D02*
X172743390Y-112993094D01*
X172743390Y-112993094D02*
X172695771Y-112897856D01*
X172695771Y-112897856D02*
X172695771Y-112659761D01*
X172695771Y-112659761D02*
X172743390Y-112564523D01*
X172743390Y-112564523D02*
X172791009Y-112516904D01*
X172791009Y-112516904D02*
X172886247Y-112469285D01*
X172886247Y-112469285D02*
X173124342Y-112469285D01*
X173124342Y-112469285D02*
X173219580Y-112516904D01*
X173219580Y-112516904D02*
X173267200Y-112564523D01*
X173267200Y-112564523D02*
X173314819Y-112659761D01*
X173314819Y-112659761D02*
X173314819Y-112897856D01*
X173314819Y-112897856D02*
X173267200Y-112993094D01*
X173267200Y-112993094D02*
X173219580Y-113040713D01*
%TO.C,Q2*%
X176574761Y-90310057D02*
X176479523Y-90262438D01*
X176479523Y-90262438D02*
X176384285Y-90167200D01*
X176384285Y-90167200D02*
X176241428Y-90024342D01*
X176241428Y-90024342D02*
X176146190Y-89976723D01*
X176146190Y-89976723D02*
X176050952Y-89976723D01*
X176098571Y-90214819D02*
X176003333Y-90167200D01*
X176003333Y-90167200D02*
X175908095Y-90071961D01*
X175908095Y-90071961D02*
X175860476Y-89881485D01*
X175860476Y-89881485D02*
X175860476Y-89548152D01*
X175860476Y-89548152D02*
X175908095Y-89357676D01*
X175908095Y-89357676D02*
X176003333Y-89262438D01*
X176003333Y-89262438D02*
X176098571Y-89214819D01*
X176098571Y-89214819D02*
X176289047Y-89214819D01*
X176289047Y-89214819D02*
X176384285Y-89262438D01*
X176384285Y-89262438D02*
X176479523Y-89357676D01*
X176479523Y-89357676D02*
X176527142Y-89548152D01*
X176527142Y-89548152D02*
X176527142Y-89881485D01*
X176527142Y-89881485D02*
X176479523Y-90071961D01*
X176479523Y-90071961D02*
X176384285Y-90167200D01*
X176384285Y-90167200D02*
X176289047Y-90214819D01*
X176289047Y-90214819D02*
X176098571Y-90214819D01*
X176908095Y-89310057D02*
X176955714Y-89262438D01*
X176955714Y-89262438D02*
X177050952Y-89214819D01*
X177050952Y-89214819D02*
X177289047Y-89214819D01*
X177289047Y-89214819D02*
X177384285Y-89262438D01*
X177384285Y-89262438D02*
X177431904Y-89310057D01*
X177431904Y-89310057D02*
X177479523Y-89405295D01*
X177479523Y-89405295D02*
X177479523Y-89500533D01*
X177479523Y-89500533D02*
X177431904Y-89643390D01*
X177431904Y-89643390D02*
X176860476Y-90214819D01*
X176860476Y-90214819D02*
X177479523Y-90214819D01*
%TO.C,J3*%
X145854819Y-123113333D02*
X146569104Y-123113333D01*
X146569104Y-123113333D02*
X146711961Y-123160952D01*
X146711961Y-123160952D02*
X146807200Y-123256190D01*
X146807200Y-123256190D02*
X146854819Y-123399047D01*
X146854819Y-123399047D02*
X146854819Y-123494285D01*
X145854819Y-122732380D02*
X145854819Y-122113333D01*
X145854819Y-122113333D02*
X146235771Y-122446666D01*
X146235771Y-122446666D02*
X146235771Y-122303809D01*
X146235771Y-122303809D02*
X146283390Y-122208571D01*
X146283390Y-122208571D02*
X146331009Y-122160952D01*
X146331009Y-122160952D02*
X146426247Y-122113333D01*
X146426247Y-122113333D02*
X146664342Y-122113333D01*
X146664342Y-122113333D02*
X146759580Y-122160952D01*
X146759580Y-122160952D02*
X146807200Y-122208571D01*
X146807200Y-122208571D02*
X146854819Y-122303809D01*
X146854819Y-122303809D02*
X146854819Y-122589523D01*
X146854819Y-122589523D02*
X146807200Y-122684761D01*
X146807200Y-122684761D02*
X146759580Y-122732380D01*
X148531904Y-120425009D02*
X148865237Y-120425009D01*
X149008094Y-120948819D02*
X148531904Y-120948819D01*
X148531904Y-120948819D02*
X148531904Y-119948819D01*
X148531904Y-119948819D02*
X149008094Y-119948819D01*
X149436666Y-120282152D02*
X149436666Y-120948819D01*
X149436666Y-120377390D02*
X149484285Y-120329771D01*
X149484285Y-120329771D02*
X149579523Y-120282152D01*
X149579523Y-120282152D02*
X149722380Y-120282152D01*
X149722380Y-120282152D02*
X149817618Y-120329771D01*
X149817618Y-120329771D02*
X149865237Y-120425009D01*
X149865237Y-120425009D02*
X149865237Y-120948819D01*
X150769999Y-120901200D02*
X150674761Y-120948819D01*
X150674761Y-120948819D02*
X150484285Y-120948819D01*
X150484285Y-120948819D02*
X150389047Y-120901200D01*
X150389047Y-120901200D02*
X150341428Y-120853580D01*
X150341428Y-120853580D02*
X150293809Y-120758342D01*
X150293809Y-120758342D02*
X150293809Y-120472628D01*
X150293809Y-120472628D02*
X150341428Y-120377390D01*
X150341428Y-120377390D02*
X150389047Y-120329771D01*
X150389047Y-120329771D02*
X150484285Y-120282152D01*
X150484285Y-120282152D02*
X150674761Y-120282152D01*
X150674761Y-120282152D02*
X150769999Y-120329771D01*
X151341428Y-120948819D02*
X151246190Y-120901200D01*
X151246190Y-120901200D02*
X151198571Y-120853580D01*
X151198571Y-120853580D02*
X151150952Y-120758342D01*
X151150952Y-120758342D02*
X151150952Y-120472628D01*
X151150952Y-120472628D02*
X151198571Y-120377390D01*
X151198571Y-120377390D02*
X151246190Y-120329771D01*
X151246190Y-120329771D02*
X151341428Y-120282152D01*
X151341428Y-120282152D02*
X151484285Y-120282152D01*
X151484285Y-120282152D02*
X151579523Y-120329771D01*
X151579523Y-120329771D02*
X151627142Y-120377390D01*
X151627142Y-120377390D02*
X151674761Y-120472628D01*
X151674761Y-120472628D02*
X151674761Y-120758342D01*
X151674761Y-120758342D02*
X151627142Y-120853580D01*
X151627142Y-120853580D02*
X151579523Y-120901200D01*
X151579523Y-120901200D02*
X151484285Y-120948819D01*
X151484285Y-120948819D02*
X151341428Y-120948819D01*
X152531904Y-120948819D02*
X152531904Y-119948819D01*
X152531904Y-120901200D02*
X152436666Y-120948819D01*
X152436666Y-120948819D02*
X152246190Y-120948819D01*
X152246190Y-120948819D02*
X152150952Y-120901200D01*
X152150952Y-120901200D02*
X152103333Y-120853580D01*
X152103333Y-120853580D02*
X152055714Y-120758342D01*
X152055714Y-120758342D02*
X152055714Y-120472628D01*
X152055714Y-120472628D02*
X152103333Y-120377390D01*
X152103333Y-120377390D02*
X152150952Y-120329771D01*
X152150952Y-120329771D02*
X152246190Y-120282152D01*
X152246190Y-120282152D02*
X152436666Y-120282152D01*
X152436666Y-120282152D02*
X152531904Y-120329771D01*
X153389047Y-120901200D02*
X153293809Y-120948819D01*
X153293809Y-120948819D02*
X153103333Y-120948819D01*
X153103333Y-120948819D02*
X153008095Y-120901200D01*
X153008095Y-120901200D02*
X152960476Y-120805961D01*
X152960476Y-120805961D02*
X152960476Y-120425009D01*
X152960476Y-120425009D02*
X153008095Y-120329771D01*
X153008095Y-120329771D02*
X153103333Y-120282152D01*
X153103333Y-120282152D02*
X153293809Y-120282152D01*
X153293809Y-120282152D02*
X153389047Y-120329771D01*
X153389047Y-120329771D02*
X153436666Y-120425009D01*
X153436666Y-120425009D02*
X153436666Y-120520247D01*
X153436666Y-120520247D02*
X152960476Y-120615485D01*
X153865238Y-120948819D02*
X153865238Y-120282152D01*
X153865238Y-120472628D02*
X153912857Y-120377390D01*
X153912857Y-120377390D02*
X153960476Y-120329771D01*
X153960476Y-120329771D02*
X154055714Y-120282152D01*
X154055714Y-120282152D02*
X154150952Y-120282152D01*
%TO.C,R4*%
X128389819Y-107984166D02*
X127913628Y-108317499D01*
X128389819Y-108555594D02*
X127389819Y-108555594D01*
X127389819Y-108555594D02*
X127389819Y-108174642D01*
X127389819Y-108174642D02*
X127437438Y-108079404D01*
X127437438Y-108079404D02*
X127485057Y-108031785D01*
X127485057Y-108031785D02*
X127580295Y-107984166D01*
X127580295Y-107984166D02*
X127723152Y-107984166D01*
X127723152Y-107984166D02*
X127818390Y-108031785D01*
X127818390Y-108031785D02*
X127866009Y-108079404D01*
X127866009Y-108079404D02*
X127913628Y-108174642D01*
X127913628Y-108174642D02*
X127913628Y-108555594D01*
X127723152Y-107127023D02*
X128389819Y-107127023D01*
X127342200Y-107365118D02*
X128056485Y-107603213D01*
X128056485Y-107603213D02*
X128056485Y-106984166D01*
%TO.C,D1*%
X173314819Y-109548094D02*
X172314819Y-109548094D01*
X172314819Y-109548094D02*
X172314819Y-109309999D01*
X172314819Y-109309999D02*
X172362438Y-109167142D01*
X172362438Y-109167142D02*
X172457676Y-109071904D01*
X172457676Y-109071904D02*
X172552914Y-109024285D01*
X172552914Y-109024285D02*
X172743390Y-108976666D01*
X172743390Y-108976666D02*
X172886247Y-108976666D01*
X172886247Y-108976666D02*
X173076723Y-109024285D01*
X173076723Y-109024285D02*
X173171961Y-109071904D01*
X173171961Y-109071904D02*
X173267200Y-109167142D01*
X173267200Y-109167142D02*
X173314819Y-109309999D01*
X173314819Y-109309999D02*
X173314819Y-109548094D01*
X173314819Y-108024285D02*
X173314819Y-108595713D01*
X173314819Y-108309999D02*
X172314819Y-108309999D01*
X172314819Y-108309999D02*
X172457676Y-108405237D01*
X172457676Y-108405237D02*
X172552914Y-108500475D01*
X172552914Y-108500475D02*
X172600533Y-108595713D01*
%TO.C,J2*%
X124562819Y-123113333D02*
X125277104Y-123113333D01*
X125277104Y-123113333D02*
X125419961Y-123160952D01*
X125419961Y-123160952D02*
X125515200Y-123256190D01*
X125515200Y-123256190D02*
X125562819Y-123399047D01*
X125562819Y-123399047D02*
X125562819Y-123494285D01*
X124658057Y-122684761D02*
X124610438Y-122637142D01*
X124610438Y-122637142D02*
X124562819Y-122541904D01*
X124562819Y-122541904D02*
X124562819Y-122303809D01*
X124562819Y-122303809D02*
X124610438Y-122208571D01*
X124610438Y-122208571D02*
X124658057Y-122160952D01*
X124658057Y-122160952D02*
X124753295Y-122113333D01*
X124753295Y-122113333D02*
X124848533Y-122113333D01*
X124848533Y-122113333D02*
X124991390Y-122160952D01*
X124991390Y-122160952D02*
X125562819Y-122732380D01*
X125562819Y-122732380D02*
X125562819Y-122113333D01*
X128449809Y-120186819D02*
X127973619Y-120186819D01*
X127973619Y-120186819D02*
X127973619Y-119186819D01*
X128926000Y-120186819D02*
X128830762Y-120139200D01*
X128830762Y-120139200D02*
X128783143Y-120091580D01*
X128783143Y-120091580D02*
X128735524Y-119996342D01*
X128735524Y-119996342D02*
X128735524Y-119710628D01*
X128735524Y-119710628D02*
X128783143Y-119615390D01*
X128783143Y-119615390D02*
X128830762Y-119567771D01*
X128830762Y-119567771D02*
X128926000Y-119520152D01*
X128926000Y-119520152D02*
X129068857Y-119520152D01*
X129068857Y-119520152D02*
X129164095Y-119567771D01*
X129164095Y-119567771D02*
X129211714Y-119615390D01*
X129211714Y-119615390D02*
X129259333Y-119710628D01*
X129259333Y-119710628D02*
X129259333Y-119996342D01*
X129259333Y-119996342D02*
X129211714Y-120091580D01*
X129211714Y-120091580D02*
X129164095Y-120139200D01*
X129164095Y-120139200D02*
X129068857Y-120186819D01*
X129068857Y-120186819D02*
X128926000Y-120186819D01*
X130116476Y-120139200D02*
X130021238Y-120186819D01*
X130021238Y-120186819D02*
X129830762Y-120186819D01*
X129830762Y-120186819D02*
X129735524Y-120139200D01*
X129735524Y-120139200D02*
X129687905Y-120091580D01*
X129687905Y-120091580D02*
X129640286Y-119996342D01*
X129640286Y-119996342D02*
X129640286Y-119710628D01*
X129640286Y-119710628D02*
X129687905Y-119615390D01*
X129687905Y-119615390D02*
X129735524Y-119567771D01*
X129735524Y-119567771D02*
X129830762Y-119520152D01*
X129830762Y-119520152D02*
X130021238Y-119520152D01*
X130021238Y-119520152D02*
X130116476Y-119567771D01*
X130545048Y-120186819D02*
X130545048Y-119186819D01*
X130640286Y-119805866D02*
X130926000Y-120186819D01*
X130926000Y-119520152D02*
X130545048Y-119901104D01*
%TO.C,R6*%
X134593333Y-104819819D02*
X134260000Y-104343628D01*
X134021905Y-104819819D02*
X134021905Y-103819819D01*
X134021905Y-103819819D02*
X134402857Y-103819819D01*
X134402857Y-103819819D02*
X134498095Y-103867438D01*
X134498095Y-103867438D02*
X134545714Y-103915057D01*
X134545714Y-103915057D02*
X134593333Y-104010295D01*
X134593333Y-104010295D02*
X134593333Y-104153152D01*
X134593333Y-104153152D02*
X134545714Y-104248390D01*
X134545714Y-104248390D02*
X134498095Y-104296009D01*
X134498095Y-104296009D02*
X134402857Y-104343628D01*
X134402857Y-104343628D02*
X134021905Y-104343628D01*
X135450476Y-103819819D02*
X135260000Y-103819819D01*
X135260000Y-103819819D02*
X135164762Y-103867438D01*
X135164762Y-103867438D02*
X135117143Y-103915057D01*
X135117143Y-103915057D02*
X135021905Y-104057914D01*
X135021905Y-104057914D02*
X134974286Y-104248390D01*
X134974286Y-104248390D02*
X134974286Y-104629342D01*
X134974286Y-104629342D02*
X135021905Y-104724580D01*
X135021905Y-104724580D02*
X135069524Y-104772200D01*
X135069524Y-104772200D02*
X135164762Y-104819819D01*
X135164762Y-104819819D02*
X135355238Y-104819819D01*
X135355238Y-104819819D02*
X135450476Y-104772200D01*
X135450476Y-104772200D02*
X135498095Y-104724580D01*
X135498095Y-104724580D02*
X135545714Y-104629342D01*
X135545714Y-104629342D02*
X135545714Y-104391247D01*
X135545714Y-104391247D02*
X135498095Y-104296009D01*
X135498095Y-104296009D02*
X135450476Y-104248390D01*
X135450476Y-104248390D02*
X135355238Y-104200771D01*
X135355238Y-104200771D02*
X135164762Y-104200771D01*
X135164762Y-104200771D02*
X135069524Y-104248390D01*
X135069524Y-104248390D02*
X135021905Y-104296009D01*
X135021905Y-104296009D02*
X134974286Y-104391247D01*
%TO.C,J1*%
X173584819Y-86918333D02*
X174299104Y-86918333D01*
X174299104Y-86918333D02*
X174441961Y-86965952D01*
X174441961Y-86965952D02*
X174537200Y-87061190D01*
X174537200Y-87061190D02*
X174584819Y-87204047D01*
X174584819Y-87204047D02*
X174584819Y-87299285D01*
X174584819Y-85918333D02*
X174584819Y-86489761D01*
X174584819Y-86204047D02*
X173584819Y-86204047D01*
X173584819Y-86204047D02*
X173727676Y-86299285D01*
X173727676Y-86299285D02*
X173822914Y-86394523D01*
X173822914Y-86394523D02*
X173870533Y-86489761D01*
X174061009Y-100086429D02*
X174108628Y-99943572D01*
X174108628Y-99943572D02*
X174156247Y-99895953D01*
X174156247Y-99895953D02*
X174251485Y-99848334D01*
X174251485Y-99848334D02*
X174394342Y-99848334D01*
X174394342Y-99848334D02*
X174489580Y-99895953D01*
X174489580Y-99895953D02*
X174537200Y-99943572D01*
X174537200Y-99943572D02*
X174584819Y-100038810D01*
X174584819Y-100038810D02*
X174584819Y-100419762D01*
X174584819Y-100419762D02*
X173584819Y-100419762D01*
X173584819Y-100419762D02*
X173584819Y-100086429D01*
X173584819Y-100086429D02*
X173632438Y-99991191D01*
X173632438Y-99991191D02*
X173680057Y-99943572D01*
X173680057Y-99943572D02*
X173775295Y-99895953D01*
X173775295Y-99895953D02*
X173870533Y-99895953D01*
X173870533Y-99895953D02*
X173965771Y-99943572D01*
X173965771Y-99943572D02*
X174013390Y-99991191D01*
X174013390Y-99991191D02*
X174061009Y-100086429D01*
X174061009Y-100086429D02*
X174061009Y-100419762D01*
X174584819Y-98991191D02*
X174061009Y-98991191D01*
X174061009Y-98991191D02*
X173965771Y-99038810D01*
X173965771Y-99038810D02*
X173918152Y-99134048D01*
X173918152Y-99134048D02*
X173918152Y-99324524D01*
X173918152Y-99324524D02*
X173965771Y-99419762D01*
X174537200Y-98991191D02*
X174584819Y-99086429D01*
X174584819Y-99086429D02*
X174584819Y-99324524D01*
X174584819Y-99324524D02*
X174537200Y-99419762D01*
X174537200Y-99419762D02*
X174441961Y-99467381D01*
X174441961Y-99467381D02*
X174346723Y-99467381D01*
X174346723Y-99467381D02*
X174251485Y-99419762D01*
X174251485Y-99419762D02*
X174203866Y-99324524D01*
X174203866Y-99324524D02*
X174203866Y-99086429D01*
X174203866Y-99086429D02*
X174156247Y-98991191D01*
X173918152Y-98657857D02*
X173918152Y-98276905D01*
X173584819Y-98515000D02*
X174441961Y-98515000D01*
X174441961Y-98515000D02*
X174537200Y-98467381D01*
X174537200Y-98467381D02*
X174584819Y-98372143D01*
X174584819Y-98372143D02*
X174584819Y-98276905D01*
X173918152Y-98086428D02*
X173918152Y-97705476D01*
X173584819Y-97943571D02*
X174441961Y-97943571D01*
X174441961Y-97943571D02*
X174537200Y-97895952D01*
X174537200Y-97895952D02*
X174584819Y-97800714D01*
X174584819Y-97800714D02*
X174584819Y-97705476D01*
X174537200Y-96991190D02*
X174584819Y-97086428D01*
X174584819Y-97086428D02*
X174584819Y-97276904D01*
X174584819Y-97276904D02*
X174537200Y-97372142D01*
X174537200Y-97372142D02*
X174441961Y-97419761D01*
X174441961Y-97419761D02*
X174061009Y-97419761D01*
X174061009Y-97419761D02*
X173965771Y-97372142D01*
X173965771Y-97372142D02*
X173918152Y-97276904D01*
X173918152Y-97276904D02*
X173918152Y-97086428D01*
X173918152Y-97086428D02*
X173965771Y-96991190D01*
X173965771Y-96991190D02*
X174061009Y-96943571D01*
X174061009Y-96943571D02*
X174156247Y-96943571D01*
X174156247Y-96943571D02*
X174251485Y-97419761D01*
X174584819Y-96514999D02*
X173918152Y-96514999D01*
X174108628Y-96514999D02*
X174013390Y-96467380D01*
X174013390Y-96467380D02*
X173965771Y-96419761D01*
X173965771Y-96419761D02*
X173918152Y-96324523D01*
X173918152Y-96324523D02*
X173918152Y-96229285D01*
X173918152Y-95991189D02*
X174584819Y-95753094D01*
X173918152Y-95514999D02*
X174584819Y-95753094D01*
X174584819Y-95753094D02*
X174822914Y-95848332D01*
X174822914Y-95848332D02*
X174870533Y-95895951D01*
X174870533Y-95895951D02*
X174918152Y-95991189D01*
%TO.C,D6*%
X173314819Y-118438094D02*
X172314819Y-118438094D01*
X172314819Y-118438094D02*
X172314819Y-118199999D01*
X172314819Y-118199999D02*
X172362438Y-118057142D01*
X172362438Y-118057142D02*
X172457676Y-117961904D01*
X172457676Y-117961904D02*
X172552914Y-117914285D01*
X172552914Y-117914285D02*
X172743390Y-117866666D01*
X172743390Y-117866666D02*
X172886247Y-117866666D01*
X172886247Y-117866666D02*
X173076723Y-117914285D01*
X173076723Y-117914285D02*
X173171961Y-117961904D01*
X173171961Y-117961904D02*
X173267200Y-118057142D01*
X173267200Y-118057142D02*
X173314819Y-118199999D01*
X173314819Y-118199999D02*
X173314819Y-118438094D01*
X172314819Y-117009523D02*
X172314819Y-117199999D01*
X172314819Y-117199999D02*
X172362438Y-117295237D01*
X172362438Y-117295237D02*
X172410057Y-117342856D01*
X172410057Y-117342856D02*
X172552914Y-117438094D01*
X172552914Y-117438094D02*
X172743390Y-117485713D01*
X172743390Y-117485713D02*
X173124342Y-117485713D01*
X173124342Y-117485713D02*
X173219580Y-117438094D01*
X173219580Y-117438094D02*
X173267200Y-117390475D01*
X173267200Y-117390475D02*
X173314819Y-117295237D01*
X173314819Y-117295237D02*
X173314819Y-117104761D01*
X173314819Y-117104761D02*
X173267200Y-117009523D01*
X173267200Y-117009523D02*
X173219580Y-116961904D01*
X173219580Y-116961904D02*
X173124342Y-116914285D01*
X173124342Y-116914285D02*
X172886247Y-116914285D01*
X172886247Y-116914285D02*
X172791009Y-116961904D01*
X172791009Y-116961904D02*
X172743390Y-117009523D01*
X172743390Y-117009523D02*
X172695771Y-117104761D01*
X172695771Y-117104761D02*
X172695771Y-117295237D01*
X172695771Y-117295237D02*
X172743390Y-117390475D01*
X172743390Y-117390475D02*
X172791009Y-117438094D01*
X172791009Y-117438094D02*
X172886247Y-117485713D01*
%TO.C,J5*%
X166174819Y-123113333D02*
X166889104Y-123113333D01*
X166889104Y-123113333D02*
X167031961Y-123160952D01*
X167031961Y-123160952D02*
X167127200Y-123256190D01*
X167127200Y-123256190D02*
X167174819Y-123399047D01*
X167174819Y-123399047D02*
X167174819Y-123494285D01*
X166174819Y-122160952D02*
X166174819Y-122637142D01*
X166174819Y-122637142D02*
X166651009Y-122684761D01*
X166651009Y-122684761D02*
X166603390Y-122637142D01*
X166603390Y-122637142D02*
X166555771Y-122541904D01*
X166555771Y-122541904D02*
X166555771Y-122303809D01*
X166555771Y-122303809D02*
X166603390Y-122208571D01*
X166603390Y-122208571D02*
X166651009Y-122160952D01*
X166651009Y-122160952D02*
X166746247Y-122113333D01*
X166746247Y-122113333D02*
X166984342Y-122113333D01*
X166984342Y-122113333D02*
X167079580Y-122160952D01*
X167079580Y-122160952D02*
X167127200Y-122208571D01*
X167127200Y-122208571D02*
X167174819Y-122303809D01*
X167174819Y-122303809D02*
X167174819Y-122541904D01*
X167174819Y-122541904D02*
X167127200Y-122637142D01*
X167127200Y-122637142D02*
X167079580Y-122684761D01*
X168462856Y-120425009D02*
X168605713Y-120472628D01*
X168605713Y-120472628D02*
X168653332Y-120520247D01*
X168653332Y-120520247D02*
X168700951Y-120615485D01*
X168700951Y-120615485D02*
X168700951Y-120758342D01*
X168700951Y-120758342D02*
X168653332Y-120853580D01*
X168653332Y-120853580D02*
X168605713Y-120901200D01*
X168605713Y-120901200D02*
X168510475Y-120948819D01*
X168510475Y-120948819D02*
X168129523Y-120948819D01*
X168129523Y-120948819D02*
X168129523Y-119948819D01*
X168129523Y-119948819D02*
X168462856Y-119948819D01*
X168462856Y-119948819D02*
X168558094Y-119996438D01*
X168558094Y-119996438D02*
X168605713Y-120044057D01*
X168605713Y-120044057D02*
X168653332Y-120139295D01*
X168653332Y-120139295D02*
X168653332Y-120234533D01*
X168653332Y-120234533D02*
X168605713Y-120329771D01*
X168605713Y-120329771D02*
X168558094Y-120377390D01*
X168558094Y-120377390D02*
X168462856Y-120425009D01*
X168462856Y-120425009D02*
X168129523Y-120425009D01*
X169558094Y-120282152D02*
X169558094Y-120948819D01*
X169129523Y-120282152D02*
X169129523Y-120805961D01*
X169129523Y-120805961D02*
X169177142Y-120901200D01*
X169177142Y-120901200D02*
X169272380Y-120948819D01*
X169272380Y-120948819D02*
X169415237Y-120948819D01*
X169415237Y-120948819D02*
X169510475Y-120901200D01*
X169510475Y-120901200D02*
X169558094Y-120853580D01*
X169891428Y-120282152D02*
X170272380Y-120282152D01*
X170034285Y-119948819D02*
X170034285Y-120805961D01*
X170034285Y-120805961D02*
X170081904Y-120901200D01*
X170081904Y-120901200D02*
X170177142Y-120948819D01*
X170177142Y-120948819D02*
X170272380Y-120948819D01*
X170462857Y-120282152D02*
X170843809Y-120282152D01*
X170605714Y-119948819D02*
X170605714Y-120805961D01*
X170605714Y-120805961D02*
X170653333Y-120901200D01*
X170653333Y-120901200D02*
X170748571Y-120948819D01*
X170748571Y-120948819D02*
X170843809Y-120948819D01*
X171320000Y-120948819D02*
X171224762Y-120901200D01*
X171224762Y-120901200D02*
X171177143Y-120853580D01*
X171177143Y-120853580D02*
X171129524Y-120758342D01*
X171129524Y-120758342D02*
X171129524Y-120472628D01*
X171129524Y-120472628D02*
X171177143Y-120377390D01*
X171177143Y-120377390D02*
X171224762Y-120329771D01*
X171224762Y-120329771D02*
X171320000Y-120282152D01*
X171320000Y-120282152D02*
X171462857Y-120282152D01*
X171462857Y-120282152D02*
X171558095Y-120329771D01*
X171558095Y-120329771D02*
X171605714Y-120377390D01*
X171605714Y-120377390D02*
X171653333Y-120472628D01*
X171653333Y-120472628D02*
X171653333Y-120758342D01*
X171653333Y-120758342D02*
X171605714Y-120853580D01*
X171605714Y-120853580D02*
X171558095Y-120901200D01*
X171558095Y-120901200D02*
X171462857Y-120948819D01*
X171462857Y-120948819D02*
X171320000Y-120948819D01*
X172081905Y-120282152D02*
X172081905Y-120948819D01*
X172081905Y-120377390D02*
X172129524Y-120329771D01*
X172129524Y-120329771D02*
X172224762Y-120282152D01*
X172224762Y-120282152D02*
X172367619Y-120282152D01*
X172367619Y-120282152D02*
X172462857Y-120329771D01*
X172462857Y-120329771D02*
X172510476Y-120425009D01*
X172510476Y-120425009D02*
X172510476Y-120948819D01*
%TO.C,D8*%
X179410819Y-107175094D02*
X178410819Y-107175094D01*
X178410819Y-107175094D02*
X178410819Y-106936999D01*
X178410819Y-106936999D02*
X178458438Y-106794142D01*
X178458438Y-106794142D02*
X178553676Y-106698904D01*
X178553676Y-106698904D02*
X178648914Y-106651285D01*
X178648914Y-106651285D02*
X178839390Y-106603666D01*
X178839390Y-106603666D02*
X178982247Y-106603666D01*
X178982247Y-106603666D02*
X179172723Y-106651285D01*
X179172723Y-106651285D02*
X179267961Y-106698904D01*
X179267961Y-106698904D02*
X179363200Y-106794142D01*
X179363200Y-106794142D02*
X179410819Y-106936999D01*
X179410819Y-106936999D02*
X179410819Y-107175094D01*
X178839390Y-106032237D02*
X178791771Y-106127475D01*
X178791771Y-106127475D02*
X178744152Y-106175094D01*
X178744152Y-106175094D02*
X178648914Y-106222713D01*
X178648914Y-106222713D02*
X178601295Y-106222713D01*
X178601295Y-106222713D02*
X178506057Y-106175094D01*
X178506057Y-106175094D02*
X178458438Y-106127475D01*
X178458438Y-106127475D02*
X178410819Y-106032237D01*
X178410819Y-106032237D02*
X178410819Y-105841761D01*
X178410819Y-105841761D02*
X178458438Y-105746523D01*
X178458438Y-105746523D02*
X178506057Y-105698904D01*
X178506057Y-105698904D02*
X178601295Y-105651285D01*
X178601295Y-105651285D02*
X178648914Y-105651285D01*
X178648914Y-105651285D02*
X178744152Y-105698904D01*
X178744152Y-105698904D02*
X178791771Y-105746523D01*
X178791771Y-105746523D02*
X178839390Y-105841761D01*
X178839390Y-105841761D02*
X178839390Y-106032237D01*
X178839390Y-106032237D02*
X178887009Y-106127475D01*
X178887009Y-106127475D02*
X178934628Y-106175094D01*
X178934628Y-106175094D02*
X179029866Y-106222713D01*
X179029866Y-106222713D02*
X179220342Y-106222713D01*
X179220342Y-106222713D02*
X179315580Y-106175094D01*
X179315580Y-106175094D02*
X179363200Y-106127475D01*
X179363200Y-106127475D02*
X179410819Y-106032237D01*
X179410819Y-106032237D02*
X179410819Y-105841761D01*
X179410819Y-105841761D02*
X179363200Y-105746523D01*
X179363200Y-105746523D02*
X179315580Y-105698904D01*
X179315580Y-105698904D02*
X179220342Y-105651285D01*
X179220342Y-105651285D02*
X179029866Y-105651285D01*
X179029866Y-105651285D02*
X178934628Y-105698904D01*
X178934628Y-105698904D02*
X178887009Y-105746523D01*
X178887009Y-105746523D02*
X178839390Y-105841761D01*
%TO.C,R7*%
X134593333Y-101644819D02*
X134260000Y-101168628D01*
X134021905Y-101644819D02*
X134021905Y-100644819D01*
X134021905Y-100644819D02*
X134402857Y-100644819D01*
X134402857Y-100644819D02*
X134498095Y-100692438D01*
X134498095Y-100692438D02*
X134545714Y-100740057D01*
X134545714Y-100740057D02*
X134593333Y-100835295D01*
X134593333Y-100835295D02*
X134593333Y-100978152D01*
X134593333Y-100978152D02*
X134545714Y-101073390D01*
X134545714Y-101073390D02*
X134498095Y-101121009D01*
X134498095Y-101121009D02*
X134402857Y-101168628D01*
X134402857Y-101168628D02*
X134021905Y-101168628D01*
X134926667Y-100644819D02*
X135593333Y-100644819D01*
X135593333Y-100644819D02*
X135164762Y-101644819D01*
%TO.C,J4*%
X133154819Y-123113333D02*
X133869104Y-123113333D01*
X133869104Y-123113333D02*
X134011961Y-123160952D01*
X134011961Y-123160952D02*
X134107200Y-123256190D01*
X134107200Y-123256190D02*
X134154819Y-123399047D01*
X134154819Y-123399047D02*
X134154819Y-123494285D01*
X133488152Y-122208571D02*
X134154819Y-122208571D01*
X133107200Y-122446666D02*
X133821485Y-122684761D01*
X133821485Y-122684761D02*
X133821485Y-122065714D01*
X137101904Y-120425009D02*
X137435237Y-120425009D01*
X137578094Y-120948819D02*
X137101904Y-120948819D01*
X137101904Y-120948819D02*
X137101904Y-119948819D01*
X137101904Y-119948819D02*
X137578094Y-119948819D01*
X138006666Y-120282152D02*
X138006666Y-120948819D01*
X138006666Y-120377390D02*
X138054285Y-120329771D01*
X138054285Y-120329771D02*
X138149523Y-120282152D01*
X138149523Y-120282152D02*
X138292380Y-120282152D01*
X138292380Y-120282152D02*
X138387618Y-120329771D01*
X138387618Y-120329771D02*
X138435237Y-120425009D01*
X138435237Y-120425009D02*
X138435237Y-120948819D01*
X139339999Y-120901200D02*
X139244761Y-120948819D01*
X139244761Y-120948819D02*
X139054285Y-120948819D01*
X139054285Y-120948819D02*
X138959047Y-120901200D01*
X138959047Y-120901200D02*
X138911428Y-120853580D01*
X138911428Y-120853580D02*
X138863809Y-120758342D01*
X138863809Y-120758342D02*
X138863809Y-120472628D01*
X138863809Y-120472628D02*
X138911428Y-120377390D01*
X138911428Y-120377390D02*
X138959047Y-120329771D01*
X138959047Y-120329771D02*
X139054285Y-120282152D01*
X139054285Y-120282152D02*
X139244761Y-120282152D01*
X139244761Y-120282152D02*
X139339999Y-120329771D01*
X139911428Y-120948819D02*
X139816190Y-120901200D01*
X139816190Y-120901200D02*
X139768571Y-120853580D01*
X139768571Y-120853580D02*
X139720952Y-120758342D01*
X139720952Y-120758342D02*
X139720952Y-120472628D01*
X139720952Y-120472628D02*
X139768571Y-120377390D01*
X139768571Y-120377390D02*
X139816190Y-120329771D01*
X139816190Y-120329771D02*
X139911428Y-120282152D01*
X139911428Y-120282152D02*
X140054285Y-120282152D01*
X140054285Y-120282152D02*
X140149523Y-120329771D01*
X140149523Y-120329771D02*
X140197142Y-120377390D01*
X140197142Y-120377390D02*
X140244761Y-120472628D01*
X140244761Y-120472628D02*
X140244761Y-120758342D01*
X140244761Y-120758342D02*
X140197142Y-120853580D01*
X140197142Y-120853580D02*
X140149523Y-120901200D01*
X140149523Y-120901200D02*
X140054285Y-120948819D01*
X140054285Y-120948819D02*
X139911428Y-120948819D01*
X141101904Y-120948819D02*
X141101904Y-119948819D01*
X141101904Y-120901200D02*
X141006666Y-120948819D01*
X141006666Y-120948819D02*
X140816190Y-120948819D01*
X140816190Y-120948819D02*
X140720952Y-120901200D01*
X140720952Y-120901200D02*
X140673333Y-120853580D01*
X140673333Y-120853580D02*
X140625714Y-120758342D01*
X140625714Y-120758342D02*
X140625714Y-120472628D01*
X140625714Y-120472628D02*
X140673333Y-120377390D01*
X140673333Y-120377390D02*
X140720952Y-120329771D01*
X140720952Y-120329771D02*
X140816190Y-120282152D01*
X140816190Y-120282152D02*
X141006666Y-120282152D01*
X141006666Y-120282152D02*
X141101904Y-120329771D01*
X141959047Y-120901200D02*
X141863809Y-120948819D01*
X141863809Y-120948819D02*
X141673333Y-120948819D01*
X141673333Y-120948819D02*
X141578095Y-120901200D01*
X141578095Y-120901200D02*
X141530476Y-120805961D01*
X141530476Y-120805961D02*
X141530476Y-120425009D01*
X141530476Y-120425009D02*
X141578095Y-120329771D01*
X141578095Y-120329771D02*
X141673333Y-120282152D01*
X141673333Y-120282152D02*
X141863809Y-120282152D01*
X141863809Y-120282152D02*
X141959047Y-120329771D01*
X141959047Y-120329771D02*
X142006666Y-120425009D01*
X142006666Y-120425009D02*
X142006666Y-120520247D01*
X142006666Y-120520247D02*
X141530476Y-120615485D01*
X142435238Y-120948819D02*
X142435238Y-120282152D01*
X142435238Y-120472628D02*
X142482857Y-120377390D01*
X142482857Y-120377390D02*
X142530476Y-120329771D01*
X142530476Y-120329771D02*
X142625714Y-120282152D01*
X142625714Y-120282152D02*
X142720952Y-120282152D01*
%TO.C,R9*%
X134593333Y-95294819D02*
X134260000Y-94818628D01*
X134021905Y-95294819D02*
X134021905Y-94294819D01*
X134021905Y-94294819D02*
X134402857Y-94294819D01*
X134402857Y-94294819D02*
X134498095Y-94342438D01*
X134498095Y-94342438D02*
X134545714Y-94390057D01*
X134545714Y-94390057D02*
X134593333Y-94485295D01*
X134593333Y-94485295D02*
X134593333Y-94628152D01*
X134593333Y-94628152D02*
X134545714Y-94723390D01*
X134545714Y-94723390D02*
X134498095Y-94771009D01*
X134498095Y-94771009D02*
X134402857Y-94818628D01*
X134402857Y-94818628D02*
X134021905Y-94818628D01*
X135069524Y-95294819D02*
X135260000Y-95294819D01*
X135260000Y-95294819D02*
X135355238Y-95247200D01*
X135355238Y-95247200D02*
X135402857Y-95199580D01*
X135402857Y-95199580D02*
X135498095Y-95056723D01*
X135498095Y-95056723D02*
X135545714Y-94866247D01*
X135545714Y-94866247D02*
X135545714Y-94485295D01*
X135545714Y-94485295D02*
X135498095Y-94390057D01*
X135498095Y-94390057D02*
X135450476Y-94342438D01*
X135450476Y-94342438D02*
X135355238Y-94294819D01*
X135355238Y-94294819D02*
X135164762Y-94294819D01*
X135164762Y-94294819D02*
X135069524Y-94342438D01*
X135069524Y-94342438D02*
X135021905Y-94390057D01*
X135021905Y-94390057D02*
X134974286Y-94485295D01*
X134974286Y-94485295D02*
X134974286Y-94723390D01*
X134974286Y-94723390D02*
X135021905Y-94818628D01*
X135021905Y-94818628D02*
X135069524Y-94866247D01*
X135069524Y-94866247D02*
X135164762Y-94913866D01*
X135164762Y-94913866D02*
X135355238Y-94913866D01*
X135355238Y-94913866D02*
X135450476Y-94866247D01*
X135450476Y-94866247D02*
X135498095Y-94818628D01*
X135498095Y-94818628D02*
X135545714Y-94723390D01*
%TO.C,Q1*%
X183570057Y-103190238D02*
X183522438Y-103285476D01*
X183522438Y-103285476D02*
X183427200Y-103380714D01*
X183427200Y-103380714D02*
X183284342Y-103523571D01*
X183284342Y-103523571D02*
X183236723Y-103618809D01*
X183236723Y-103618809D02*
X183236723Y-103714047D01*
X183474819Y-103666428D02*
X183427200Y-103761666D01*
X183427200Y-103761666D02*
X183331961Y-103856904D01*
X183331961Y-103856904D02*
X183141485Y-103904523D01*
X183141485Y-103904523D02*
X182808152Y-103904523D01*
X182808152Y-103904523D02*
X182617676Y-103856904D01*
X182617676Y-103856904D02*
X182522438Y-103761666D01*
X182522438Y-103761666D02*
X182474819Y-103666428D01*
X182474819Y-103666428D02*
X182474819Y-103475952D01*
X182474819Y-103475952D02*
X182522438Y-103380714D01*
X182522438Y-103380714D02*
X182617676Y-103285476D01*
X182617676Y-103285476D02*
X182808152Y-103237857D01*
X182808152Y-103237857D02*
X183141485Y-103237857D01*
X183141485Y-103237857D02*
X183331961Y-103285476D01*
X183331961Y-103285476D02*
X183427200Y-103380714D01*
X183427200Y-103380714D02*
X183474819Y-103475952D01*
X183474819Y-103475952D02*
X183474819Y-103666428D01*
X183474819Y-102285476D02*
X183474819Y-102856904D01*
X183474819Y-102571190D02*
X182474819Y-102571190D01*
X182474819Y-102571190D02*
X182617676Y-102666428D01*
X182617676Y-102666428D02*
X182712914Y-102761666D01*
X182712914Y-102761666D02*
X182760533Y-102856904D01*
%TO.C,Q5*%
X120210057Y-101587738D02*
X120162438Y-101682976D01*
X120162438Y-101682976D02*
X120067200Y-101778214D01*
X120067200Y-101778214D02*
X119924342Y-101921071D01*
X119924342Y-101921071D02*
X119876723Y-102016309D01*
X119876723Y-102016309D02*
X119876723Y-102111547D01*
X120114819Y-102063928D02*
X120067200Y-102159166D01*
X120067200Y-102159166D02*
X119971961Y-102254404D01*
X119971961Y-102254404D02*
X119781485Y-102302023D01*
X119781485Y-102302023D02*
X119448152Y-102302023D01*
X119448152Y-102302023D02*
X119257676Y-102254404D01*
X119257676Y-102254404D02*
X119162438Y-102159166D01*
X119162438Y-102159166D02*
X119114819Y-102063928D01*
X119114819Y-102063928D02*
X119114819Y-101873452D01*
X119114819Y-101873452D02*
X119162438Y-101778214D01*
X119162438Y-101778214D02*
X119257676Y-101682976D01*
X119257676Y-101682976D02*
X119448152Y-101635357D01*
X119448152Y-101635357D02*
X119781485Y-101635357D01*
X119781485Y-101635357D02*
X119971961Y-101682976D01*
X119971961Y-101682976D02*
X120067200Y-101778214D01*
X120067200Y-101778214D02*
X120114819Y-101873452D01*
X120114819Y-101873452D02*
X120114819Y-102063928D01*
X119114819Y-100730595D02*
X119114819Y-101206785D01*
X119114819Y-101206785D02*
X119591009Y-101254404D01*
X119591009Y-101254404D02*
X119543390Y-101206785D01*
X119543390Y-101206785D02*
X119495771Y-101111547D01*
X119495771Y-101111547D02*
X119495771Y-100873452D01*
X119495771Y-100873452D02*
X119543390Y-100778214D01*
X119543390Y-100778214D02*
X119591009Y-100730595D01*
X119591009Y-100730595D02*
X119686247Y-100682976D01*
X119686247Y-100682976D02*
X119924342Y-100682976D01*
X119924342Y-100682976D02*
X120019580Y-100730595D01*
X120019580Y-100730595D02*
X120067200Y-100778214D01*
X120067200Y-100778214D02*
X120114819Y-100873452D01*
X120114819Y-100873452D02*
X120114819Y-101111547D01*
X120114819Y-101111547D02*
X120067200Y-101206785D01*
X120067200Y-101206785D02*
X120019580Y-101254404D01*
%TO.C,D2*%
X173314819Y-105103094D02*
X172314819Y-105103094D01*
X172314819Y-105103094D02*
X172314819Y-104864999D01*
X172314819Y-104864999D02*
X172362438Y-104722142D01*
X172362438Y-104722142D02*
X172457676Y-104626904D01*
X172457676Y-104626904D02*
X172552914Y-104579285D01*
X172552914Y-104579285D02*
X172743390Y-104531666D01*
X172743390Y-104531666D02*
X172886247Y-104531666D01*
X172886247Y-104531666D02*
X173076723Y-104579285D01*
X173076723Y-104579285D02*
X173171961Y-104626904D01*
X173171961Y-104626904D02*
X173267200Y-104722142D01*
X173267200Y-104722142D02*
X173314819Y-104864999D01*
X173314819Y-104864999D02*
X173314819Y-105103094D01*
X172410057Y-104150713D02*
X172362438Y-104103094D01*
X172362438Y-104103094D02*
X172314819Y-104007856D01*
X172314819Y-104007856D02*
X172314819Y-103769761D01*
X172314819Y-103769761D02*
X172362438Y-103674523D01*
X172362438Y-103674523D02*
X172410057Y-103626904D01*
X172410057Y-103626904D02*
X172505295Y-103579285D01*
X172505295Y-103579285D02*
X172600533Y-103579285D01*
X172600533Y-103579285D02*
X172743390Y-103626904D01*
X172743390Y-103626904D02*
X173314819Y-104198332D01*
X173314819Y-104198332D02*
X173314819Y-103579285D01*
%TO.C,C1*%
X177510885Y-86545177D02*
X177463266Y-86592797D01*
X177463266Y-86592797D02*
X177320409Y-86640416D01*
X177320409Y-86640416D02*
X177225171Y-86640416D01*
X177225171Y-86640416D02*
X177082314Y-86592797D01*
X177082314Y-86592797D02*
X176987076Y-86497558D01*
X176987076Y-86497558D02*
X176939457Y-86402320D01*
X176939457Y-86402320D02*
X176891838Y-86211844D01*
X176891838Y-86211844D02*
X176891838Y-86068987D01*
X176891838Y-86068987D02*
X176939457Y-85878511D01*
X176939457Y-85878511D02*
X176987076Y-85783273D01*
X176987076Y-85783273D02*
X177082314Y-85688035D01*
X177082314Y-85688035D02*
X177225171Y-85640416D01*
X177225171Y-85640416D02*
X177320409Y-85640416D01*
X177320409Y-85640416D02*
X177463266Y-85688035D01*
X177463266Y-85688035D02*
X177510885Y-85735654D01*
X178463266Y-86640416D02*
X177891838Y-86640416D01*
X178177552Y-86640416D02*
X178177552Y-85640416D01*
X178177552Y-85640416D02*
X178082314Y-85783273D01*
X178082314Y-85783273D02*
X177987076Y-85878511D01*
X177987076Y-85878511D02*
X177891838Y-85926130D01*
%TO.C,R3*%
X183474819Y-99451666D02*
X182998628Y-99784999D01*
X183474819Y-100023094D02*
X182474819Y-100023094D01*
X182474819Y-100023094D02*
X182474819Y-99642142D01*
X182474819Y-99642142D02*
X182522438Y-99546904D01*
X182522438Y-99546904D02*
X182570057Y-99499285D01*
X182570057Y-99499285D02*
X182665295Y-99451666D01*
X182665295Y-99451666D02*
X182808152Y-99451666D01*
X182808152Y-99451666D02*
X182903390Y-99499285D01*
X182903390Y-99499285D02*
X182951009Y-99546904D01*
X182951009Y-99546904D02*
X182998628Y-99642142D01*
X182998628Y-99642142D02*
X182998628Y-100023094D01*
X182474819Y-99118332D02*
X182474819Y-98499285D01*
X182474819Y-98499285D02*
X182855771Y-98832618D01*
X182855771Y-98832618D02*
X182855771Y-98689761D01*
X182855771Y-98689761D02*
X182903390Y-98594523D01*
X182903390Y-98594523D02*
X182951009Y-98546904D01*
X182951009Y-98546904D02*
X183046247Y-98499285D01*
X183046247Y-98499285D02*
X183284342Y-98499285D01*
X183284342Y-98499285D02*
X183379580Y-98546904D01*
X183379580Y-98546904D02*
X183427200Y-98594523D01*
X183427200Y-98594523D02*
X183474819Y-98689761D01*
X183474819Y-98689761D02*
X183474819Y-98975475D01*
X183474819Y-98975475D02*
X183427200Y-99070713D01*
X183427200Y-99070713D02*
X183379580Y-99118332D01*
%TO.C,R5*%
X128389819Y-101634166D02*
X127913628Y-101967499D01*
X128389819Y-102205594D02*
X127389819Y-102205594D01*
X127389819Y-102205594D02*
X127389819Y-101824642D01*
X127389819Y-101824642D02*
X127437438Y-101729404D01*
X127437438Y-101729404D02*
X127485057Y-101681785D01*
X127485057Y-101681785D02*
X127580295Y-101634166D01*
X127580295Y-101634166D02*
X127723152Y-101634166D01*
X127723152Y-101634166D02*
X127818390Y-101681785D01*
X127818390Y-101681785D02*
X127866009Y-101729404D01*
X127866009Y-101729404D02*
X127913628Y-101824642D01*
X127913628Y-101824642D02*
X127913628Y-102205594D01*
X127389819Y-100729404D02*
X127389819Y-101205594D01*
X127389819Y-101205594D02*
X127866009Y-101253213D01*
X127866009Y-101253213D02*
X127818390Y-101205594D01*
X127818390Y-101205594D02*
X127770771Y-101110356D01*
X127770771Y-101110356D02*
X127770771Y-100872261D01*
X127770771Y-100872261D02*
X127818390Y-100777023D01*
X127818390Y-100777023D02*
X127866009Y-100729404D01*
X127866009Y-100729404D02*
X127961247Y-100681785D01*
X127961247Y-100681785D02*
X128199342Y-100681785D01*
X128199342Y-100681785D02*
X128294580Y-100729404D01*
X128294580Y-100729404D02*
X128342200Y-100777023D01*
X128342200Y-100777023D02*
X128389819Y-100872261D01*
X128389819Y-100872261D02*
X128389819Y-101110356D01*
X128389819Y-101110356D02*
X128342200Y-101205594D01*
X128342200Y-101205594D02*
X128294580Y-101253213D01*
%TO.C,J6*%
X156014819Y-123113333D02*
X156729104Y-123113333D01*
X156729104Y-123113333D02*
X156871961Y-123160952D01*
X156871961Y-123160952D02*
X156967200Y-123256190D01*
X156967200Y-123256190D02*
X157014819Y-123399047D01*
X157014819Y-123399047D02*
X157014819Y-123494285D01*
X156014819Y-122208571D02*
X156014819Y-122399047D01*
X156014819Y-122399047D02*
X156062438Y-122494285D01*
X156062438Y-122494285D02*
X156110057Y-122541904D01*
X156110057Y-122541904D02*
X156252914Y-122637142D01*
X156252914Y-122637142D02*
X156443390Y-122684761D01*
X156443390Y-122684761D02*
X156824342Y-122684761D01*
X156824342Y-122684761D02*
X156919580Y-122637142D01*
X156919580Y-122637142D02*
X156967200Y-122589523D01*
X156967200Y-122589523D02*
X157014819Y-122494285D01*
X157014819Y-122494285D02*
X157014819Y-122303809D01*
X157014819Y-122303809D02*
X156967200Y-122208571D01*
X156967200Y-122208571D02*
X156919580Y-122160952D01*
X156919580Y-122160952D02*
X156824342Y-122113333D01*
X156824342Y-122113333D02*
X156586247Y-122113333D01*
X156586247Y-122113333D02*
X156491009Y-122160952D01*
X156491009Y-122160952D02*
X156443390Y-122208571D01*
X156443390Y-122208571D02*
X156395771Y-122303809D01*
X156395771Y-122303809D02*
X156395771Y-122494285D01*
X156395771Y-122494285D02*
X156443390Y-122589523D01*
X156443390Y-122589523D02*
X156491009Y-122637142D01*
X156491009Y-122637142D02*
X156586247Y-122684761D01*
X160453809Y-120948819D02*
X159977619Y-120948819D01*
X159977619Y-120948819D02*
X159977619Y-119948819D01*
X161168095Y-120901200D02*
X161072857Y-120948819D01*
X161072857Y-120948819D02*
X160882381Y-120948819D01*
X160882381Y-120948819D02*
X160787143Y-120901200D01*
X160787143Y-120901200D02*
X160739524Y-120805961D01*
X160739524Y-120805961D02*
X160739524Y-120425009D01*
X160739524Y-120425009D02*
X160787143Y-120329771D01*
X160787143Y-120329771D02*
X160882381Y-120282152D01*
X160882381Y-120282152D02*
X161072857Y-120282152D01*
X161072857Y-120282152D02*
X161168095Y-120329771D01*
X161168095Y-120329771D02*
X161215714Y-120425009D01*
X161215714Y-120425009D02*
X161215714Y-120520247D01*
X161215714Y-120520247D02*
X160739524Y-120615485D01*
X162072857Y-120948819D02*
X162072857Y-119948819D01*
X162072857Y-120901200D02*
X161977619Y-120948819D01*
X161977619Y-120948819D02*
X161787143Y-120948819D01*
X161787143Y-120948819D02*
X161691905Y-120901200D01*
X161691905Y-120901200D02*
X161644286Y-120853580D01*
X161644286Y-120853580D02*
X161596667Y-120758342D01*
X161596667Y-120758342D02*
X161596667Y-120472628D01*
X161596667Y-120472628D02*
X161644286Y-120377390D01*
X161644286Y-120377390D02*
X161691905Y-120329771D01*
X161691905Y-120329771D02*
X161787143Y-120282152D01*
X161787143Y-120282152D02*
X161977619Y-120282152D01*
X161977619Y-120282152D02*
X162072857Y-120329771D01*
X162501429Y-120901200D02*
X162596667Y-120948819D01*
X162596667Y-120948819D02*
X162787143Y-120948819D01*
X162787143Y-120948819D02*
X162882381Y-120901200D01*
X162882381Y-120901200D02*
X162930000Y-120805961D01*
X162930000Y-120805961D02*
X162930000Y-120758342D01*
X162930000Y-120758342D02*
X162882381Y-120663104D01*
X162882381Y-120663104D02*
X162787143Y-120615485D01*
X162787143Y-120615485D02*
X162644286Y-120615485D01*
X162644286Y-120615485D02*
X162549048Y-120567866D01*
X162549048Y-120567866D02*
X162501429Y-120472628D01*
X162501429Y-120472628D02*
X162501429Y-120425009D01*
X162501429Y-120425009D02*
X162549048Y-120329771D01*
X162549048Y-120329771D02*
X162644286Y-120282152D01*
X162644286Y-120282152D02*
X162787143Y-120282152D01*
X162787143Y-120282152D02*
X162882381Y-120329771D01*
%TO.C,D9*%
X181696819Y-107175094D02*
X180696819Y-107175094D01*
X180696819Y-107175094D02*
X180696819Y-106936999D01*
X180696819Y-106936999D02*
X180744438Y-106794142D01*
X180744438Y-106794142D02*
X180839676Y-106698904D01*
X180839676Y-106698904D02*
X180934914Y-106651285D01*
X180934914Y-106651285D02*
X181125390Y-106603666D01*
X181125390Y-106603666D02*
X181268247Y-106603666D01*
X181268247Y-106603666D02*
X181458723Y-106651285D01*
X181458723Y-106651285D02*
X181553961Y-106698904D01*
X181553961Y-106698904D02*
X181649200Y-106794142D01*
X181649200Y-106794142D02*
X181696819Y-106936999D01*
X181696819Y-106936999D02*
X181696819Y-107175094D01*
X181696819Y-106127475D02*
X181696819Y-105936999D01*
X181696819Y-105936999D02*
X181649200Y-105841761D01*
X181649200Y-105841761D02*
X181601580Y-105794142D01*
X181601580Y-105794142D02*
X181458723Y-105698904D01*
X181458723Y-105698904D02*
X181268247Y-105651285D01*
X181268247Y-105651285D02*
X180887295Y-105651285D01*
X180887295Y-105651285D02*
X180792057Y-105698904D01*
X180792057Y-105698904D02*
X180744438Y-105746523D01*
X180744438Y-105746523D02*
X180696819Y-105841761D01*
X180696819Y-105841761D02*
X180696819Y-106032237D01*
X180696819Y-106032237D02*
X180744438Y-106127475D01*
X180744438Y-106127475D02*
X180792057Y-106175094D01*
X180792057Y-106175094D02*
X180887295Y-106222713D01*
X180887295Y-106222713D02*
X181125390Y-106222713D01*
X181125390Y-106222713D02*
X181220628Y-106175094D01*
X181220628Y-106175094D02*
X181268247Y-106127475D01*
X181268247Y-106127475D02*
X181315866Y-106032237D01*
X181315866Y-106032237D02*
X181315866Y-105841761D01*
X181315866Y-105841761D02*
X181268247Y-105746523D01*
X181268247Y-105746523D02*
X181220628Y-105698904D01*
X181220628Y-105698904D02*
X181125390Y-105651285D01*
%TO.C,R8*%
X134593333Y-98469819D02*
X134260000Y-97993628D01*
X134021905Y-98469819D02*
X134021905Y-97469819D01*
X134021905Y-97469819D02*
X134402857Y-97469819D01*
X134402857Y-97469819D02*
X134498095Y-97517438D01*
X134498095Y-97517438D02*
X134545714Y-97565057D01*
X134545714Y-97565057D02*
X134593333Y-97660295D01*
X134593333Y-97660295D02*
X134593333Y-97803152D01*
X134593333Y-97803152D02*
X134545714Y-97898390D01*
X134545714Y-97898390D02*
X134498095Y-97946009D01*
X134498095Y-97946009D02*
X134402857Y-97993628D01*
X134402857Y-97993628D02*
X134021905Y-97993628D01*
X135164762Y-97898390D02*
X135069524Y-97850771D01*
X135069524Y-97850771D02*
X135021905Y-97803152D01*
X135021905Y-97803152D02*
X134974286Y-97707914D01*
X134974286Y-97707914D02*
X134974286Y-97660295D01*
X134974286Y-97660295D02*
X135021905Y-97565057D01*
X135021905Y-97565057D02*
X135069524Y-97517438D01*
X135069524Y-97517438D02*
X135164762Y-97469819D01*
X135164762Y-97469819D02*
X135355238Y-97469819D01*
X135355238Y-97469819D02*
X135450476Y-97517438D01*
X135450476Y-97517438D02*
X135498095Y-97565057D01*
X135498095Y-97565057D02*
X135545714Y-97660295D01*
X135545714Y-97660295D02*
X135545714Y-97707914D01*
X135545714Y-97707914D02*
X135498095Y-97803152D01*
X135498095Y-97803152D02*
X135450476Y-97850771D01*
X135450476Y-97850771D02*
X135355238Y-97898390D01*
X135355238Y-97898390D02*
X135164762Y-97898390D01*
X135164762Y-97898390D02*
X135069524Y-97946009D01*
X135069524Y-97946009D02*
X135021905Y-97993628D01*
X135021905Y-97993628D02*
X134974286Y-98088866D01*
X134974286Y-98088866D02*
X134974286Y-98279342D01*
X134974286Y-98279342D02*
X135021905Y-98374580D01*
X135021905Y-98374580D02*
X135069524Y-98422200D01*
X135069524Y-98422200D02*
X135164762Y-98469819D01*
X135164762Y-98469819D02*
X135355238Y-98469819D01*
X135355238Y-98469819D02*
X135450476Y-98422200D01*
X135450476Y-98422200D02*
X135498095Y-98374580D01*
X135498095Y-98374580D02*
X135545714Y-98279342D01*
X135545714Y-98279342D02*
X135545714Y-98088866D01*
X135545714Y-98088866D02*
X135498095Y-97993628D01*
X135498095Y-97993628D02*
X135450476Y-97946009D01*
X135450476Y-97946009D02*
X135355238Y-97898390D01*
%TO.C,U1*%
X135484819Y-87346904D02*
X136294342Y-87346904D01*
X136294342Y-87346904D02*
X136389580Y-87299285D01*
X136389580Y-87299285D02*
X136437200Y-87251666D01*
X136437200Y-87251666D02*
X136484819Y-87156428D01*
X136484819Y-87156428D02*
X136484819Y-86965952D01*
X136484819Y-86965952D02*
X136437200Y-86870714D01*
X136437200Y-86870714D02*
X136389580Y-86823095D01*
X136389580Y-86823095D02*
X136294342Y-86775476D01*
X136294342Y-86775476D02*
X135484819Y-86775476D01*
X136484819Y-85775476D02*
X136484819Y-86346904D01*
X136484819Y-86061190D02*
X135484819Y-86061190D01*
X135484819Y-86061190D02*
X135627676Y-86156428D01*
X135627676Y-86156428D02*
X135722914Y-86251666D01*
X135722914Y-86251666D02*
X135770533Y-86346904D01*
%TO.C,G1*%
D12*
X175238146Y-115554882D02*
X175246934Y-115558913D01*
X175259480Y-115565835D01*
X175276569Y-115576112D01*
X175298989Y-115590210D01*
X175327527Y-115608591D01*
X175362970Y-115631722D01*
X175406105Y-115660065D01*
X175426458Y-115673471D01*
X175467480Y-115700528D01*
X175506194Y-115726101D01*
X175541612Y-115749536D01*
X175572747Y-115770178D01*
X175598612Y-115787371D01*
X175618218Y-115800461D01*
X175630578Y-115808792D01*
X175634156Y-115811270D01*
X175648708Y-115821775D01*
X175649168Y-120057437D01*
X176238959Y-120394363D01*
X176828750Y-120731290D01*
X176828750Y-119879072D01*
X176795189Y-119838609D01*
X176709212Y-119728521D01*
X176629973Y-119614006D01*
X176557660Y-119495736D01*
X176492457Y-119374385D01*
X176434549Y-119250627D01*
X176384124Y-119125135D01*
X176341365Y-118998582D01*
X176306459Y-118871642D01*
X176279590Y-118744988D01*
X176260946Y-118619294D01*
X176250711Y-118495233D01*
X176249070Y-118373479D01*
X176256210Y-118254705D01*
X176272315Y-118139584D01*
X176297060Y-118030651D01*
X176327319Y-117935095D01*
X176348632Y-117883826D01*
X176805180Y-117883826D01*
X176806268Y-117898314D01*
X176808909Y-117907117D01*
X176811891Y-117914831D01*
X176818641Y-117931725D01*
X176828911Y-117957188D01*
X176842453Y-117990609D01*
X176859016Y-118031377D01*
X176878352Y-118078881D01*
X176900213Y-118132510D01*
X176924347Y-118191653D01*
X176950508Y-118255700D01*
X176978446Y-118324038D01*
X177007911Y-118396058D01*
X177038654Y-118471149D01*
X177070428Y-118548698D01*
X177071542Y-118551417D01*
X177326166Y-119172647D01*
X177326166Y-119693393D01*
X177338072Y-119710572D01*
X177342718Y-119715716D01*
X177350709Y-119722119D01*
X177362824Y-119730221D01*
X177379838Y-119740462D01*
X177402528Y-119753281D01*
X177431670Y-119769119D01*
X177468041Y-119788416D01*
X177512417Y-119811610D01*
X177559000Y-119835747D01*
X177616911Y-119865477D01*
X177666383Y-119890466D01*
X177707270Y-119910646D01*
X177739427Y-119925946D01*
X177762709Y-119936297D01*
X177776972Y-119941629D01*
X177781250Y-119942382D01*
X177794479Y-119941021D01*
X177797125Y-119676437D01*
X177799770Y-119411854D01*
X178061046Y-119049709D01*
X178114420Y-118975575D01*
X178161802Y-118909441D01*
X178203150Y-118851364D01*
X178238422Y-118801405D01*
X178267579Y-118759622D01*
X178290579Y-118726074D01*
X178307380Y-118700821D01*
X178317941Y-118683921D01*
X178322222Y-118675434D01*
X178322322Y-118674809D01*
X178318623Y-118661255D01*
X178312401Y-118652296D01*
X178304809Y-118647018D01*
X178289073Y-118637760D01*
X178266298Y-118625084D01*
X178237589Y-118609556D01*
X178204051Y-118591739D01*
X178166789Y-118572199D01*
X178126910Y-118551499D01*
X178085518Y-118530203D01*
X178043718Y-118508877D01*
X178002617Y-118488084D01*
X177963319Y-118468389D01*
X177926929Y-118450356D01*
X177894553Y-118434549D01*
X177867297Y-118421533D01*
X177846265Y-118411873D01*
X177832563Y-118406132D01*
X177827548Y-118404747D01*
X177823729Y-118406772D01*
X177818268Y-118412414D01*
X177810731Y-118422364D01*
X177800685Y-118437316D01*
X177787694Y-118457960D01*
X177771325Y-118484988D01*
X177751144Y-118519091D01*
X177726717Y-118560963D01*
X177697610Y-118611293D01*
X177693685Y-118618104D01*
X177666896Y-118664318D01*
X177642187Y-118706399D01*
X177620029Y-118743581D01*
X177600891Y-118775096D01*
X177585242Y-118800177D01*
X177573552Y-118818055D01*
X177566289Y-118827965D01*
X177564196Y-118829771D01*
X177560944Y-118825450D01*
X177554758Y-118812377D01*
X177545573Y-118790385D01*
X177533326Y-118759305D01*
X177517952Y-118718969D01*
X177499386Y-118669212D01*
X177477566Y-118609865D01*
X177452425Y-118540760D01*
X177437344Y-118499042D01*
X177416774Y-118442074D01*
X177397110Y-118387688D01*
X177378669Y-118336760D01*
X177361770Y-118290167D01*
X177346732Y-118248786D01*
X177333873Y-118213493D01*
X177323513Y-118185164D01*
X177315969Y-118164677D01*
X177311561Y-118152907D01*
X177310729Y-118150792D01*
X177301277Y-118135462D01*
X177288120Y-118121834D01*
X177287026Y-118120991D01*
X177279820Y-118116658D01*
X177264352Y-118108086D01*
X177241771Y-118095876D01*
X177213229Y-118080626D01*
X177179873Y-118062939D01*
X177142855Y-118043414D01*
X177103324Y-118022652D01*
X177062429Y-118001253D01*
X177021322Y-117979817D01*
X176981151Y-117958945D01*
X176943066Y-117939237D01*
X176908218Y-117921294D01*
X176877756Y-117905716D01*
X176852830Y-117893104D01*
X176834589Y-117884057D01*
X176824185Y-117879176D01*
X176822978Y-117878690D01*
X176810796Y-117877193D01*
X176805180Y-117883826D01*
X176348632Y-117883826D01*
X176363729Y-117847512D01*
X176406864Y-117766883D01*
X176457299Y-117692186D01*
X176515610Y-117622400D01*
X176542881Y-117594014D01*
X176607486Y-117534908D01*
X176674244Y-117485159D01*
X176744622Y-117443977D01*
X176820085Y-117410571D01*
X176902102Y-117384148D01*
X176955750Y-117371170D01*
X176975855Y-117367111D01*
X176994686Y-117364066D01*
X177014300Y-117361894D01*
X177036757Y-117360453D01*
X177064116Y-117359599D01*
X177098435Y-117359191D01*
X177130375Y-117359091D01*
X177178094Y-117359335D01*
X177217913Y-117360377D01*
X177252501Y-117362527D01*
X177284530Y-117366097D01*
X177316670Y-117371398D01*
X177351592Y-117378741D01*
X177391968Y-117388437D01*
X177400362Y-117390542D01*
X177490372Y-117417204D01*
X177583351Y-117452281D01*
X177677317Y-117494835D01*
X177770292Y-117543924D01*
X177860295Y-117598609D01*
X177910895Y-117632902D01*
X178024968Y-117719745D01*
X178134134Y-117815484D01*
X178237905Y-117919396D01*
X178335790Y-118030761D01*
X178427300Y-118148854D01*
X178511944Y-118272955D01*
X178589232Y-118402340D01*
X178658675Y-118536289D01*
X178719782Y-118674078D01*
X178772063Y-118814985D01*
X178815029Y-118958289D01*
X178818092Y-118970000D01*
X178839183Y-119057919D01*
X178855353Y-119140678D01*
X178867009Y-119221527D01*
X178874558Y-119303714D01*
X178878408Y-119390488D01*
X178879119Y-119456833D01*
X178878691Y-119514407D01*
X178877382Y-119563829D01*
X178874954Y-119607511D01*
X178871171Y-119647866D01*
X178865795Y-119687306D01*
X178858587Y-119728243D01*
X178849311Y-119773090D01*
X178846882Y-119784114D01*
X178820527Y-119882069D01*
X178786360Y-119974923D01*
X178744798Y-120062117D01*
X178696259Y-120143091D01*
X178641160Y-120217284D01*
X178579917Y-120284136D01*
X178512948Y-120343087D01*
X178440670Y-120393578D01*
X178363500Y-120435048D01*
X178361341Y-120436043D01*
X178310416Y-120459403D01*
X178310538Y-121033649D01*
X178310659Y-121607896D01*
X178805308Y-121895877D01*
X179299958Y-122183859D01*
X179299958Y-122679458D01*
X179240427Y-122678793D01*
X179213221Y-122678083D01*
X179179211Y-122676588D01*
X179142129Y-122674504D01*
X179105710Y-122672027D01*
X179093672Y-122671092D01*
X178864603Y-122647467D01*
X178638883Y-122613843D01*
X178416628Y-122570262D01*
X178197951Y-122516768D01*
X177982967Y-122453403D01*
X177771792Y-122380212D01*
X177564539Y-122297237D01*
X177361325Y-122204522D01*
X177162262Y-122102110D01*
X176967467Y-121990044D01*
X176777054Y-121868367D01*
X176591137Y-121737123D01*
X176566812Y-121718991D01*
X176482051Y-121654152D01*
X176401840Y-121590046D01*
X176324464Y-121525156D01*
X176248208Y-121457964D01*
X176171356Y-121386949D01*
X176092192Y-121310595D01*
X176009002Y-121227382D01*
X175992432Y-121210499D01*
X175845647Y-121053074D01*
X175705810Y-120887958D01*
X175573240Y-120715710D01*
X175448256Y-120536891D01*
X175331180Y-120352060D01*
X175222330Y-120161779D01*
X175122026Y-119966606D01*
X175030588Y-119767101D01*
X174948337Y-119563825D01*
X174875591Y-119357338D01*
X174812670Y-119148200D01*
X174810846Y-119141556D01*
X174756491Y-118923017D01*
X174712443Y-118702402D01*
X174678723Y-118480122D01*
X174655351Y-118256589D01*
X174642348Y-118032214D01*
X174639734Y-117807410D01*
X174647530Y-117582587D01*
X174665756Y-117358159D01*
X174694434Y-117134536D01*
X174706855Y-117057062D01*
X174749462Y-116835392D01*
X174801891Y-116617569D01*
X174864243Y-116403245D01*
X174936625Y-116192071D01*
X175019141Y-115983697D01*
X175049243Y-115914062D01*
X175060422Y-115889330D01*
X175074471Y-115859174D01*
X175090721Y-115824942D01*
X175108506Y-115787984D01*
X175127159Y-115749650D01*
X175146014Y-115711287D01*
X175164404Y-115674244D01*
X175181663Y-115639872D01*
X175197123Y-115609519D01*
X175210118Y-115584533D01*
X175219982Y-115566264D01*
X175226047Y-115556061D01*
X175226449Y-115555496D01*
X175228690Y-115553638D01*
X175232327Y-115553279D01*
X175238146Y-115554882D01*
G36*
X175238146Y-115554882D02*
G01*
X175246934Y-115558913D01*
X175259480Y-115565835D01*
X175276569Y-115576112D01*
X175298989Y-115590210D01*
X175327527Y-115608591D01*
X175362970Y-115631722D01*
X175406105Y-115660065D01*
X175426458Y-115673471D01*
X175467480Y-115700528D01*
X175506194Y-115726101D01*
X175541612Y-115749536D01*
X175572747Y-115770178D01*
X175598612Y-115787371D01*
X175618218Y-115800461D01*
X175630578Y-115808792D01*
X175634156Y-115811270D01*
X175648708Y-115821775D01*
X175649168Y-120057437D01*
X176238959Y-120394363D01*
X176828750Y-120731290D01*
X176828750Y-119879072D01*
X176795189Y-119838609D01*
X176709212Y-119728521D01*
X176629973Y-119614006D01*
X176557660Y-119495736D01*
X176492457Y-119374385D01*
X176434549Y-119250627D01*
X176384124Y-119125135D01*
X176341365Y-118998582D01*
X176306459Y-118871642D01*
X176279590Y-118744988D01*
X176260946Y-118619294D01*
X176250711Y-118495233D01*
X176249070Y-118373479D01*
X176256210Y-118254705D01*
X176272315Y-118139584D01*
X176297060Y-118030651D01*
X176327319Y-117935095D01*
X176348632Y-117883826D01*
X176805180Y-117883826D01*
X176806268Y-117898314D01*
X176808909Y-117907117D01*
X176811891Y-117914831D01*
X176818641Y-117931725D01*
X176828911Y-117957188D01*
X176842453Y-117990609D01*
X176859016Y-118031377D01*
X176878352Y-118078881D01*
X176900213Y-118132510D01*
X176924347Y-118191653D01*
X176950508Y-118255700D01*
X176978446Y-118324038D01*
X177007911Y-118396058D01*
X177038654Y-118471149D01*
X177070428Y-118548698D01*
X177071542Y-118551417D01*
X177326166Y-119172647D01*
X177326166Y-119693393D01*
X177338072Y-119710572D01*
X177342718Y-119715716D01*
X177350709Y-119722119D01*
X177362824Y-119730221D01*
X177379838Y-119740462D01*
X177402528Y-119753281D01*
X177431670Y-119769119D01*
X177468041Y-119788416D01*
X177512417Y-119811610D01*
X177559000Y-119835747D01*
X177616911Y-119865477D01*
X177666383Y-119890466D01*
X177707270Y-119910646D01*
X177739427Y-119925946D01*
X177762709Y-119936297D01*
X177776972Y-119941629D01*
X177781250Y-119942382D01*
X177794479Y-119941021D01*
X177797125Y-119676437D01*
X177799770Y-119411854D01*
X178061046Y-119049709D01*
X178114420Y-118975575D01*
X178161802Y-118909441D01*
X178203150Y-118851364D01*
X178238422Y-118801405D01*
X178267579Y-118759622D01*
X178290579Y-118726074D01*
X178307380Y-118700821D01*
X178317941Y-118683921D01*
X178322222Y-118675434D01*
X178322322Y-118674809D01*
X178318623Y-118661255D01*
X178312401Y-118652296D01*
X178304809Y-118647018D01*
X178289073Y-118637760D01*
X178266298Y-118625084D01*
X178237589Y-118609556D01*
X178204051Y-118591739D01*
X178166789Y-118572199D01*
X178126910Y-118551499D01*
X178085518Y-118530203D01*
X178043718Y-118508877D01*
X178002617Y-118488084D01*
X177963319Y-118468389D01*
X177926929Y-118450356D01*
X177894553Y-118434549D01*
X177867297Y-118421533D01*
X177846265Y-118411873D01*
X177832563Y-118406132D01*
X177827548Y-118404747D01*
X177823729Y-118406772D01*
X177818268Y-118412414D01*
X177810731Y-118422364D01*
X177800685Y-118437316D01*
X177787694Y-118457960D01*
X177771325Y-118484988D01*
X177751144Y-118519091D01*
X177726717Y-118560963D01*
X177697610Y-118611293D01*
X177693685Y-118618104D01*
X177666896Y-118664318D01*
X177642187Y-118706399D01*
X177620029Y-118743581D01*
X177600891Y-118775096D01*
X177585242Y-118800177D01*
X177573552Y-118818055D01*
X177566289Y-118827965D01*
X177564196Y-118829771D01*
X177560944Y-118825450D01*
X177554758Y-118812377D01*
X177545573Y-118790385D01*
X177533326Y-118759305D01*
X177517952Y-118718969D01*
X177499386Y-118669212D01*
X177477566Y-118609865D01*
X177452425Y-118540760D01*
X177437344Y-118499042D01*
X177416774Y-118442074D01*
X177397110Y-118387688D01*
X177378669Y-118336760D01*
X177361770Y-118290167D01*
X177346732Y-118248786D01*
X177333873Y-118213493D01*
X177323513Y-118185164D01*
X177315969Y-118164677D01*
X177311561Y-118152907D01*
X177310729Y-118150792D01*
X177301277Y-118135462D01*
X177288120Y-118121834D01*
X177287026Y-118120991D01*
X177279820Y-118116658D01*
X177264352Y-118108086D01*
X177241771Y-118095876D01*
X177213229Y-118080626D01*
X177179873Y-118062939D01*
X177142855Y-118043414D01*
X177103324Y-118022652D01*
X177062429Y-118001253D01*
X177021322Y-117979817D01*
X176981151Y-117958945D01*
X176943066Y-117939237D01*
X176908218Y-117921294D01*
X176877756Y-117905716D01*
X176852830Y-117893104D01*
X176834589Y-117884057D01*
X176824185Y-117879176D01*
X176822978Y-117878690D01*
X176810796Y-117877193D01*
X176805180Y-117883826D01*
X176348632Y-117883826D01*
X176363729Y-117847512D01*
X176406864Y-117766883D01*
X176457299Y-117692186D01*
X176515610Y-117622400D01*
X176542881Y-117594014D01*
X176607486Y-117534908D01*
X176674244Y-117485159D01*
X176744622Y-117443977D01*
X176820085Y-117410571D01*
X176902102Y-117384148D01*
X176955750Y-117371170D01*
X176975855Y-117367111D01*
X176994686Y-117364066D01*
X177014300Y-117361894D01*
X177036757Y-117360453D01*
X177064116Y-117359599D01*
X177098435Y-117359191D01*
X177130375Y-117359091D01*
X177178094Y-117359335D01*
X177217913Y-117360377D01*
X177252501Y-117362527D01*
X177284530Y-117366097D01*
X177316670Y-117371398D01*
X177351592Y-117378741D01*
X177391968Y-117388437D01*
X177400362Y-117390542D01*
X177490372Y-117417204D01*
X177583351Y-117452281D01*
X177677317Y-117494835D01*
X177770292Y-117543924D01*
X177860295Y-117598609D01*
X177910895Y-117632902D01*
X178024968Y-117719745D01*
X178134134Y-117815484D01*
X178237905Y-117919396D01*
X178335790Y-118030761D01*
X178427300Y-118148854D01*
X178511944Y-118272955D01*
X178589232Y-118402340D01*
X178658675Y-118536289D01*
X178719782Y-118674078D01*
X178772063Y-118814985D01*
X178815029Y-118958289D01*
X178818092Y-118970000D01*
X178839183Y-119057919D01*
X178855353Y-119140678D01*
X178867009Y-119221527D01*
X178874558Y-119303714D01*
X178878408Y-119390488D01*
X178879119Y-119456833D01*
X178878691Y-119514407D01*
X178877382Y-119563829D01*
X178874954Y-119607511D01*
X178871171Y-119647866D01*
X178865795Y-119687306D01*
X178858587Y-119728243D01*
X178849311Y-119773090D01*
X178846882Y-119784114D01*
X178820527Y-119882069D01*
X178786360Y-119974923D01*
X178744798Y-120062117D01*
X178696259Y-120143091D01*
X178641160Y-120217284D01*
X178579917Y-120284136D01*
X178512948Y-120343087D01*
X178440670Y-120393578D01*
X178363500Y-120435048D01*
X178361341Y-120436043D01*
X178310416Y-120459403D01*
X178310538Y-121033649D01*
X178310659Y-121607896D01*
X178805308Y-121895877D01*
X179299958Y-122183859D01*
X179299958Y-122679458D01*
X179240427Y-122678793D01*
X179213221Y-122678083D01*
X179179211Y-122676588D01*
X179142129Y-122674504D01*
X179105710Y-122672027D01*
X179093672Y-122671092D01*
X178864603Y-122647467D01*
X178638883Y-122613843D01*
X178416628Y-122570262D01*
X178197951Y-122516768D01*
X177982967Y-122453403D01*
X177771792Y-122380212D01*
X177564539Y-122297237D01*
X177361325Y-122204522D01*
X177162262Y-122102110D01*
X176967467Y-121990044D01*
X176777054Y-121868367D01*
X176591137Y-121737123D01*
X176566812Y-121718991D01*
X176482051Y-121654152D01*
X176401840Y-121590046D01*
X176324464Y-121525156D01*
X176248208Y-121457964D01*
X176171356Y-121386949D01*
X176092192Y-121310595D01*
X176009002Y-121227382D01*
X175992432Y-121210499D01*
X175845647Y-121053074D01*
X175705810Y-120887958D01*
X175573240Y-120715710D01*
X175448256Y-120536891D01*
X175331180Y-120352060D01*
X175222330Y-120161779D01*
X175122026Y-119966606D01*
X175030588Y-119767101D01*
X174948337Y-119563825D01*
X174875591Y-119357338D01*
X174812670Y-119148200D01*
X174810846Y-119141556D01*
X174756491Y-118923017D01*
X174712443Y-118702402D01*
X174678723Y-118480122D01*
X174655351Y-118256589D01*
X174642348Y-118032214D01*
X174639734Y-117807410D01*
X174647530Y-117582587D01*
X174665756Y-117358159D01*
X174694434Y-117134536D01*
X174706855Y-117057062D01*
X174749462Y-116835392D01*
X174801891Y-116617569D01*
X174864243Y-116403245D01*
X174936625Y-116192071D01*
X175019141Y-115983697D01*
X175049243Y-115914062D01*
X175060422Y-115889330D01*
X175074471Y-115859174D01*
X175090721Y-115824942D01*
X175108506Y-115787984D01*
X175127159Y-115749650D01*
X175146014Y-115711287D01*
X175164404Y-115674244D01*
X175181663Y-115639872D01*
X175197123Y-115609519D01*
X175210118Y-115584533D01*
X175219982Y-115566264D01*
X175226047Y-115556061D01*
X175226449Y-115555496D01*
X175228690Y-115553638D01*
X175232327Y-115553279D01*
X175238146Y-115554882D01*
G37*
X183707540Y-115572892D02*
X183715442Y-115585094D01*
X183726674Y-115604882D01*
X183740730Y-115631222D01*
X183757104Y-115663081D01*
X183775289Y-115699426D01*
X183794779Y-115739224D01*
X183815068Y-115781443D01*
X183835648Y-115825049D01*
X183856014Y-115869009D01*
X183875660Y-115912291D01*
X183894078Y-115953861D01*
X183909080Y-115988707D01*
X183991803Y-116197488D01*
X184064416Y-116409144D01*
X184126894Y-116623341D01*
X184179211Y-116839745D01*
X184221343Y-117058019D01*
X184253265Y-117277831D01*
X184274951Y-117498844D01*
X184286376Y-117720724D01*
X184287514Y-117943136D01*
X184278341Y-118165746D01*
X184258832Y-118388218D01*
X184228961Y-118610218D01*
X184188703Y-118831411D01*
X184139236Y-119046729D01*
X184078739Y-119263963D01*
X184008547Y-119477267D01*
X183928851Y-119686352D01*
X183839843Y-119890930D01*
X183741716Y-120090711D01*
X183634663Y-120285407D01*
X183518874Y-120474729D01*
X183394544Y-120658388D01*
X183261863Y-120836096D01*
X183121025Y-121007563D01*
X182972221Y-121172501D01*
X182815644Y-121330621D01*
X182651487Y-121481634D01*
X182479941Y-121625251D01*
X182361187Y-121717029D01*
X182175484Y-121849457D01*
X181985008Y-121972510D01*
X181789985Y-122086101D01*
X181590643Y-122190141D01*
X181387208Y-122284541D01*
X181179906Y-122369214D01*
X180968963Y-122444069D01*
X180754605Y-122509020D01*
X180537060Y-122563977D01*
X180316553Y-122608852D01*
X180093311Y-122643556D01*
X179948187Y-122660481D01*
X179912173Y-122663925D01*
X179872852Y-122667246D01*
X179828796Y-122670545D01*
X179778573Y-122673924D01*
X179720753Y-122677483D01*
X179653907Y-122681322D01*
X179647885Y-122681658D01*
X179601583Y-122684235D01*
X179601758Y-122439753D01*
X179601934Y-122195271D01*
X181002718Y-121377708D01*
X181120890Y-121308738D01*
X181239450Y-121239541D01*
X181357888Y-121170416D01*
X181475690Y-121101661D01*
X181592347Y-121033576D01*
X181707344Y-120966459D01*
X181820172Y-120900609D01*
X181930318Y-120836325D01*
X182037270Y-120773904D01*
X182140516Y-120713647D01*
X182239545Y-120655851D01*
X182333845Y-120600815D01*
X182422904Y-120548838D01*
X182506210Y-120500219D01*
X182583252Y-120455257D01*
X182653518Y-120414249D01*
X182716496Y-120377495D01*
X182771673Y-120345293D01*
X182818540Y-120317943D01*
X182843175Y-120303566D01*
X183282847Y-120046987D01*
X183286429Y-119314534D01*
X183286845Y-119227371D01*
X183287227Y-119143145D01*
X183287573Y-119062457D01*
X183287881Y-118985913D01*
X183288150Y-118914116D01*
X183288378Y-118847670D01*
X183288563Y-118787178D01*
X183288703Y-118733245D01*
X183288797Y-118686473D01*
X183288843Y-118647467D01*
X183288839Y-118616830D01*
X183288783Y-118595166D01*
X183288674Y-118583079D01*
X183288570Y-118580640D01*
X183283786Y-118582749D01*
X183271193Y-118589456D01*
X183252120Y-118600021D01*
X183227897Y-118613703D01*
X183199853Y-118629763D01*
X183186638Y-118637397D01*
X183161267Y-118652083D01*
X183128162Y-118671235D01*
X183088751Y-118694028D01*
X183044466Y-118719633D01*
X182996736Y-118747225D01*
X182946991Y-118775977D01*
X182896661Y-118805062D01*
X182852741Y-118830438D01*
X182619336Y-118965282D01*
X182612740Y-118987485D01*
X182606343Y-119007841D01*
X182596879Y-119036388D01*
X182584962Y-119071395D01*
X182571205Y-119111128D01*
X182556222Y-119153857D01*
X182540626Y-119197849D01*
X182525030Y-119241372D01*
X182510048Y-119282694D01*
X182496293Y-119320084D01*
X182484379Y-119351809D01*
X182476498Y-119372167D01*
X182455089Y-119424866D01*
X182435107Y-119470519D01*
X182415010Y-119512236D01*
X182393257Y-119553129D01*
X182368306Y-119596308D01*
X182352508Y-119622409D01*
X182273304Y-119743218D01*
X182188043Y-119857318D01*
X182097253Y-119964200D01*
X182001465Y-120063352D01*
X181901209Y-120154266D01*
X181797013Y-120236430D01*
X181689407Y-120309335D01*
X181578922Y-120372472D01*
X181567437Y-120378381D01*
X181461397Y-120427716D01*
X181356269Y-120467380D01*
X181252382Y-120497368D01*
X181150069Y-120517679D01*
X181049661Y-120528311D01*
X180951489Y-120529261D01*
X180855885Y-120520528D01*
X180763180Y-120502108D01*
X180673705Y-120474000D01*
X180587792Y-120436202D01*
X180505772Y-120388710D01*
X180501141Y-120385659D01*
X180473020Y-120364740D01*
X180440937Y-120337160D01*
X180406922Y-120304986D01*
X180372998Y-120270285D01*
X180341193Y-120235123D01*
X180313534Y-120201567D01*
X180293467Y-120173854D01*
X180244166Y-120091044D01*
X180202762Y-120003591D01*
X180169007Y-119910745D01*
X180142655Y-119811754D01*
X180123459Y-119705870D01*
X180114297Y-119628812D01*
X180112209Y-119597676D01*
X180110953Y-119558397D01*
X180110482Y-119513233D01*
X180110749Y-119464441D01*
X180111706Y-119414278D01*
X180113306Y-119365004D01*
X180115501Y-119318874D01*
X180118244Y-119278147D01*
X180121488Y-119245081D01*
X180122518Y-119237229D01*
X180150683Y-119075649D01*
X180189032Y-118916884D01*
X180237484Y-118761168D01*
X180295960Y-118608736D01*
X180364379Y-118459824D01*
X180417585Y-118359953D01*
X180907167Y-118359953D01*
X180907501Y-118368423D01*
X180908198Y-118378194D01*
X180908621Y-118389288D01*
X180908625Y-118390230D01*
X180908900Y-118411498D01*
X180909684Y-118440042D01*
X180910907Y-118474594D01*
X180912502Y-118513888D01*
X180914403Y-118556655D01*
X180916542Y-118601627D01*
X180918852Y-118647538D01*
X180921266Y-118693120D01*
X180923716Y-118737104D01*
X180926135Y-118778225D01*
X180928456Y-118815214D01*
X180930611Y-118846803D01*
X180932534Y-118871725D01*
X180934157Y-118888713D01*
X180935412Y-118896499D01*
X180935497Y-118896691D01*
X180937140Y-118898960D01*
X180940025Y-118900851D01*
X180945057Y-118902396D01*
X180953138Y-118903631D01*
X180965172Y-118904591D01*
X180982061Y-118905310D01*
X181004710Y-118905822D01*
X181034022Y-118906163D01*
X181070899Y-118906366D01*
X181116245Y-118906466D01*
X181170963Y-118906498D01*
X181191915Y-118906500D01*
X181255975Y-118906609D01*
X181311085Y-118906934D01*
X181356977Y-118907467D01*
X181393384Y-118908205D01*
X181420039Y-118909141D01*
X181436675Y-118910270D01*
X181443024Y-118911586D01*
X181443083Y-118911735D01*
X181439848Y-118917599D01*
X181431035Y-118929713D01*
X181417986Y-118946320D01*
X181402038Y-118965660D01*
X181401773Y-118965975D01*
X181390408Y-118979447D01*
X181373020Y-119000046D01*
X181350414Y-119026819D01*
X181323398Y-119058808D01*
X181292778Y-119095060D01*
X181259362Y-119134618D01*
X181223957Y-119176527D01*
X181187369Y-119219832D01*
X181171394Y-119238739D01*
X181135726Y-119281036D01*
X181101881Y-119321332D01*
X181070524Y-119358828D01*
X181042315Y-119392723D01*
X181017920Y-119422216D01*
X180998001Y-119446507D01*
X180983220Y-119464795D01*
X180974241Y-119476280D01*
X180971953Y-119479510D01*
X180966175Y-119491948D01*
X180962917Y-119507651D01*
X180961640Y-119529721D01*
X180961561Y-119539116D01*
X180961802Y-119554513D01*
X180962495Y-119578004D01*
X180963579Y-119608303D01*
X180964992Y-119644125D01*
X180966675Y-119684187D01*
X180968565Y-119727203D01*
X180970602Y-119771888D01*
X180972724Y-119816957D01*
X180974871Y-119861126D01*
X180976982Y-119903109D01*
X180978996Y-119941623D01*
X180980851Y-119975381D01*
X180982486Y-120003100D01*
X180983842Y-120023494D01*
X180984856Y-120035279D01*
X180985233Y-120037594D01*
X180989983Y-120043506D01*
X180997792Y-120042246D01*
X181009307Y-120033335D01*
X181025175Y-120016294D01*
X181042410Y-119995260D01*
X181050661Y-119984742D01*
X181064936Y-119966435D01*
X181084785Y-119940921D01*
X181109757Y-119908781D01*
X181139400Y-119870597D01*
X181173264Y-119826951D01*
X181210896Y-119778424D01*
X181251847Y-119725598D01*
X181295664Y-119669055D01*
X181341897Y-119609377D01*
X181390095Y-119547144D01*
X181439806Y-119482940D01*
X181468207Y-119446250D01*
X181855271Y-118946187D01*
X182074664Y-118820052D01*
X182119036Y-118794428D01*
X182160829Y-118770075D01*
X182199098Y-118747559D01*
X182232893Y-118727450D01*
X182261266Y-118710315D01*
X182283270Y-118696721D01*
X182297957Y-118687237D01*
X182304344Y-118682469D01*
X182313317Y-118670393D01*
X182318206Y-118660959D01*
X182318853Y-118653207D01*
X182318921Y-118636218D01*
X182318474Y-118611318D01*
X182317576Y-118579835D01*
X182316290Y-118543095D01*
X182314680Y-118502426D01*
X182312808Y-118459153D01*
X182310740Y-118414605D01*
X182308537Y-118370107D01*
X182306264Y-118326986D01*
X182303983Y-118286569D01*
X182301759Y-118250184D01*
X182299655Y-118219156D01*
X182297734Y-118194813D01*
X182296060Y-118178481D01*
X182294806Y-118171703D01*
X182287372Y-118162313D01*
X182279625Y-118161788D01*
X182273070Y-118164917D01*
X182258370Y-118172806D01*
X182236525Y-118184889D01*
X182208538Y-118200603D01*
X182175409Y-118219384D01*
X182138141Y-118240668D01*
X182097735Y-118263891D01*
X182074723Y-118277178D01*
X182032223Y-118301735D01*
X181991657Y-118325132D01*
X181954141Y-118346729D01*
X181920793Y-118365883D01*
X181892728Y-118381955D01*
X181871064Y-118394303D01*
X181856916Y-118402286D01*
X181853187Y-118404345D01*
X181826729Y-118418691D01*
X181378291Y-118373351D01*
X181296841Y-118365065D01*
X181225296Y-118357735D01*
X181163021Y-118351386D01*
X181109379Y-118346039D01*
X181063734Y-118341719D01*
X181025451Y-118338446D01*
X180993892Y-118336245D01*
X180968422Y-118335139D01*
X180948404Y-118335149D01*
X180933202Y-118336300D01*
X180922180Y-118338613D01*
X180914701Y-118342112D01*
X180910131Y-118346820D01*
X180907831Y-118352759D01*
X180907167Y-118359953D01*
X180417585Y-118359953D01*
X180429469Y-118337646D01*
X180502266Y-118217357D01*
X180580742Y-118102747D01*
X180664376Y-117994258D01*
X180752649Y-117892333D01*
X180845042Y-117797415D01*
X180941036Y-117709945D01*
X181040110Y-117630365D01*
X181141747Y-117559119D01*
X181245426Y-117496649D01*
X181350628Y-117443396D01*
X181456834Y-117399803D01*
X181563524Y-117366313D01*
X181572729Y-117363913D01*
X181673223Y-117342639D01*
X181771845Y-117330729D01*
X181867940Y-117328177D01*
X181960852Y-117334975D01*
X182049924Y-117351118D01*
X182114473Y-117369573D01*
X182154060Y-117383515D01*
X182188426Y-117397453D01*
X182219656Y-117412615D01*
X182249835Y-117430228D01*
X182281049Y-117451518D01*
X182315380Y-117477712D01*
X182354915Y-117510037D01*
X182359102Y-117513543D01*
X182387150Y-117536930D01*
X182413752Y-117558862D01*
X182437414Y-117578126D01*
X182456639Y-117593509D01*
X182469934Y-117603799D01*
X182473501Y-117606386D01*
X182494735Y-117621101D01*
X182887013Y-117416153D01*
X183279291Y-117211206D01*
X183279291Y-115801502D01*
X183489635Y-115686350D01*
X183532975Y-115662624D01*
X183573455Y-115640465D01*
X183610132Y-115620388D01*
X183642063Y-115602911D01*
X183668303Y-115588549D01*
X183687909Y-115577820D01*
X183699937Y-115571240D01*
X183703475Y-115569308D01*
X183707540Y-115572892D01*
G36*
X183707540Y-115572892D02*
G01*
X183715442Y-115585094D01*
X183726674Y-115604882D01*
X183740730Y-115631222D01*
X183757104Y-115663081D01*
X183775289Y-115699426D01*
X183794779Y-115739224D01*
X183815068Y-115781443D01*
X183835648Y-115825049D01*
X183856014Y-115869009D01*
X183875660Y-115912291D01*
X183894078Y-115953861D01*
X183909080Y-115988707D01*
X183991803Y-116197488D01*
X184064416Y-116409144D01*
X184126894Y-116623341D01*
X184179211Y-116839745D01*
X184221343Y-117058019D01*
X184253265Y-117277831D01*
X184274951Y-117498844D01*
X184286376Y-117720724D01*
X184287514Y-117943136D01*
X184278341Y-118165746D01*
X184258832Y-118388218D01*
X184228961Y-118610218D01*
X184188703Y-118831411D01*
X184139236Y-119046729D01*
X184078739Y-119263963D01*
X184008547Y-119477267D01*
X183928851Y-119686352D01*
X183839843Y-119890930D01*
X183741716Y-120090711D01*
X183634663Y-120285407D01*
X183518874Y-120474729D01*
X183394544Y-120658388D01*
X183261863Y-120836096D01*
X183121025Y-121007563D01*
X182972221Y-121172501D01*
X182815644Y-121330621D01*
X182651487Y-121481634D01*
X182479941Y-121625251D01*
X182361187Y-121717029D01*
X182175484Y-121849457D01*
X181985008Y-121972510D01*
X181789985Y-122086101D01*
X181590643Y-122190141D01*
X181387208Y-122284541D01*
X181179906Y-122369214D01*
X180968963Y-122444069D01*
X180754605Y-122509020D01*
X180537060Y-122563977D01*
X180316553Y-122608852D01*
X180093311Y-122643556D01*
X179948187Y-122660481D01*
X179912173Y-122663925D01*
X179872852Y-122667246D01*
X179828796Y-122670545D01*
X179778573Y-122673924D01*
X179720753Y-122677483D01*
X179653907Y-122681322D01*
X179647885Y-122681658D01*
X179601583Y-122684235D01*
X179601758Y-122439753D01*
X179601934Y-122195271D01*
X181002718Y-121377708D01*
X181120890Y-121308738D01*
X181239450Y-121239541D01*
X181357888Y-121170416D01*
X181475690Y-121101661D01*
X181592347Y-121033576D01*
X181707344Y-120966459D01*
X181820172Y-120900609D01*
X181930318Y-120836325D01*
X182037270Y-120773904D01*
X182140516Y-120713647D01*
X182239545Y-120655851D01*
X182333845Y-120600815D01*
X182422904Y-120548838D01*
X182506210Y-120500219D01*
X182583252Y-120455257D01*
X182653518Y-120414249D01*
X182716496Y-120377495D01*
X182771673Y-120345293D01*
X182818540Y-120317943D01*
X182843175Y-120303566D01*
X183282847Y-120046987D01*
X183286429Y-119314534D01*
X183286845Y-119227371D01*
X183287227Y-119143145D01*
X183287573Y-119062457D01*
X183287881Y-118985913D01*
X183288150Y-118914116D01*
X183288378Y-118847670D01*
X183288563Y-118787178D01*
X183288703Y-118733245D01*
X183288797Y-118686473D01*
X183288843Y-118647467D01*
X183288839Y-118616830D01*
X183288783Y-118595166D01*
X183288674Y-118583079D01*
X183288570Y-118580640D01*
X183283786Y-118582749D01*
X183271193Y-118589456D01*
X183252120Y-118600021D01*
X183227897Y-118613703D01*
X183199853Y-118629763D01*
X183186638Y-118637397D01*
X183161267Y-118652083D01*
X183128162Y-118671235D01*
X183088751Y-118694028D01*
X183044466Y-118719633D01*
X182996736Y-118747225D01*
X182946991Y-118775977D01*
X182896661Y-118805062D01*
X182852741Y-118830438D01*
X182619336Y-118965282D01*
X182612740Y-118987485D01*
X182606343Y-119007841D01*
X182596879Y-119036388D01*
X182584962Y-119071395D01*
X182571205Y-119111128D01*
X182556222Y-119153857D01*
X182540626Y-119197849D01*
X182525030Y-119241372D01*
X182510048Y-119282694D01*
X182496293Y-119320084D01*
X182484379Y-119351809D01*
X182476498Y-119372167D01*
X182455089Y-119424866D01*
X182435107Y-119470519D01*
X182415010Y-119512236D01*
X182393257Y-119553129D01*
X182368306Y-119596308D01*
X182352508Y-119622409D01*
X182273304Y-119743218D01*
X182188043Y-119857318D01*
X182097253Y-119964200D01*
X182001465Y-120063352D01*
X181901209Y-120154266D01*
X181797013Y-120236430D01*
X181689407Y-120309335D01*
X181578922Y-120372472D01*
X181567437Y-120378381D01*
X181461397Y-120427716D01*
X181356269Y-120467380D01*
X181252382Y-120497368D01*
X181150069Y-120517679D01*
X181049661Y-120528311D01*
X180951489Y-120529261D01*
X180855885Y-120520528D01*
X180763180Y-120502108D01*
X180673705Y-120474000D01*
X180587792Y-120436202D01*
X180505772Y-120388710D01*
X180501141Y-120385659D01*
X180473020Y-120364740D01*
X180440937Y-120337160D01*
X180406922Y-120304986D01*
X180372998Y-120270285D01*
X180341193Y-120235123D01*
X180313534Y-120201567D01*
X180293467Y-120173854D01*
X180244166Y-120091044D01*
X180202762Y-120003591D01*
X180169007Y-119910745D01*
X180142655Y-119811754D01*
X180123459Y-119705870D01*
X180114297Y-119628812D01*
X180112209Y-119597676D01*
X180110953Y-119558397D01*
X180110482Y-119513233D01*
X180110749Y-119464441D01*
X180111706Y-119414278D01*
X180113306Y-119365004D01*
X180115501Y-119318874D01*
X180118244Y-119278147D01*
X180121488Y-119245081D01*
X180122518Y-119237229D01*
X180150683Y-119075649D01*
X180189032Y-118916884D01*
X180237484Y-118761168D01*
X180295960Y-118608736D01*
X180364379Y-118459824D01*
X180417585Y-118359953D01*
X180907167Y-118359953D01*
X180907501Y-118368423D01*
X180908198Y-118378194D01*
X180908621Y-118389288D01*
X180908625Y-118390230D01*
X180908900Y-118411498D01*
X180909684Y-118440042D01*
X180910907Y-118474594D01*
X180912502Y-118513888D01*
X180914403Y-118556655D01*
X180916542Y-118601627D01*
X180918852Y-118647538D01*
X180921266Y-118693120D01*
X180923716Y-118737104D01*
X180926135Y-118778225D01*
X180928456Y-118815214D01*
X180930611Y-118846803D01*
X180932534Y-118871725D01*
X180934157Y-118888713D01*
X180935412Y-118896499D01*
X180935497Y-118896691D01*
X180937140Y-118898960D01*
X180940025Y-118900851D01*
X180945057Y-118902396D01*
X180953138Y-118903631D01*
X180965172Y-118904591D01*
X180982061Y-118905310D01*
X181004710Y-118905822D01*
X181034022Y-118906163D01*
X181070899Y-118906366D01*
X181116245Y-118906466D01*
X181170963Y-118906498D01*
X181191915Y-118906500D01*
X181255975Y-118906609D01*
X181311085Y-118906934D01*
X181356977Y-118907467D01*
X181393384Y-118908205D01*
X181420039Y-118909141D01*
X181436675Y-118910270D01*
X181443024Y-118911586D01*
X181443083Y-118911735D01*
X181439848Y-118917599D01*
X181431035Y-118929713D01*
X181417986Y-118946320D01*
X181402038Y-118965660D01*
X181401773Y-118965975D01*
X181390408Y-118979447D01*
X181373020Y-119000046D01*
X181350414Y-119026819D01*
X181323398Y-119058808D01*
X181292778Y-119095060D01*
X181259362Y-119134618D01*
X181223957Y-119176527D01*
X181187369Y-119219832D01*
X181171394Y-119238739D01*
X181135726Y-119281036D01*
X181101881Y-119321332D01*
X181070524Y-119358828D01*
X181042315Y-119392723D01*
X181017920Y-119422216D01*
X180998001Y-119446507D01*
X180983220Y-119464795D01*
X180974241Y-119476280D01*
X180971953Y-119479510D01*
X180966175Y-119491948D01*
X180962917Y-119507651D01*
X180961640Y-119529721D01*
X180961561Y-119539116D01*
X180961802Y-119554513D01*
X180962495Y-119578004D01*
X180963579Y-119608303D01*
X180964992Y-119644125D01*
X180966675Y-119684187D01*
X180968565Y-119727203D01*
X180970602Y-119771888D01*
X180972724Y-119816957D01*
X180974871Y-119861126D01*
X180976982Y-119903109D01*
X180978996Y-119941623D01*
X180980851Y-119975381D01*
X180982486Y-120003100D01*
X180983842Y-120023494D01*
X180984856Y-120035279D01*
X180985233Y-120037594D01*
X180989983Y-120043506D01*
X180997792Y-120042246D01*
X181009307Y-120033335D01*
X181025175Y-120016294D01*
X181042410Y-119995260D01*
X181050661Y-119984742D01*
X181064936Y-119966435D01*
X181084785Y-119940921D01*
X181109757Y-119908781D01*
X181139400Y-119870597D01*
X181173264Y-119826951D01*
X181210896Y-119778424D01*
X181251847Y-119725598D01*
X181295664Y-119669055D01*
X181341897Y-119609377D01*
X181390095Y-119547144D01*
X181439806Y-119482940D01*
X181468207Y-119446250D01*
X181855271Y-118946187D01*
X182074664Y-118820052D01*
X182119036Y-118794428D01*
X182160829Y-118770075D01*
X182199098Y-118747559D01*
X182232893Y-118727450D01*
X182261266Y-118710315D01*
X182283270Y-118696721D01*
X182297957Y-118687237D01*
X182304344Y-118682469D01*
X182313317Y-118670393D01*
X182318206Y-118660959D01*
X182318853Y-118653207D01*
X182318921Y-118636218D01*
X182318474Y-118611318D01*
X182317576Y-118579835D01*
X182316290Y-118543095D01*
X182314680Y-118502426D01*
X182312808Y-118459153D01*
X182310740Y-118414605D01*
X182308537Y-118370107D01*
X182306264Y-118326986D01*
X182303983Y-118286569D01*
X182301759Y-118250184D01*
X182299655Y-118219156D01*
X182297734Y-118194813D01*
X182296060Y-118178481D01*
X182294806Y-118171703D01*
X182287372Y-118162313D01*
X182279625Y-118161788D01*
X182273070Y-118164917D01*
X182258370Y-118172806D01*
X182236525Y-118184889D01*
X182208538Y-118200603D01*
X182175409Y-118219384D01*
X182138141Y-118240668D01*
X182097735Y-118263891D01*
X182074723Y-118277178D01*
X182032223Y-118301735D01*
X181991657Y-118325132D01*
X181954141Y-118346729D01*
X181920793Y-118365883D01*
X181892728Y-118381955D01*
X181871064Y-118394303D01*
X181856916Y-118402286D01*
X181853187Y-118404345D01*
X181826729Y-118418691D01*
X181378291Y-118373351D01*
X181296841Y-118365065D01*
X181225296Y-118357735D01*
X181163021Y-118351386D01*
X181109379Y-118346039D01*
X181063734Y-118341719D01*
X181025451Y-118338446D01*
X180993892Y-118336245D01*
X180968422Y-118335139D01*
X180948404Y-118335149D01*
X180933202Y-118336300D01*
X180922180Y-118338613D01*
X180914701Y-118342112D01*
X180910131Y-118346820D01*
X180907831Y-118352759D01*
X180907167Y-118359953D01*
X180417585Y-118359953D01*
X180429469Y-118337646D01*
X180502266Y-118217357D01*
X180580742Y-118102747D01*
X180664376Y-117994258D01*
X180752649Y-117892333D01*
X180845042Y-117797415D01*
X180941036Y-117709945D01*
X181040110Y-117630365D01*
X181141747Y-117559119D01*
X181245426Y-117496649D01*
X181350628Y-117443396D01*
X181456834Y-117399803D01*
X181563524Y-117366313D01*
X181572729Y-117363913D01*
X181673223Y-117342639D01*
X181771845Y-117330729D01*
X181867940Y-117328177D01*
X181960852Y-117334975D01*
X182049924Y-117351118D01*
X182114473Y-117369573D01*
X182154060Y-117383515D01*
X182188426Y-117397453D01*
X182219656Y-117412615D01*
X182249835Y-117430228D01*
X182281049Y-117451518D01*
X182315380Y-117477712D01*
X182354915Y-117510037D01*
X182359102Y-117513543D01*
X182387150Y-117536930D01*
X182413752Y-117558862D01*
X182437414Y-117578126D01*
X182456639Y-117593509D01*
X182469934Y-117603799D01*
X182473501Y-117606386D01*
X182494735Y-117621101D01*
X182887013Y-117416153D01*
X183279291Y-117211206D01*
X183279291Y-115801502D01*
X183489635Y-115686350D01*
X183532975Y-115662624D01*
X183573455Y-115640465D01*
X183610132Y-115620388D01*
X183642063Y-115602911D01*
X183668303Y-115588549D01*
X183687909Y-115577820D01*
X183699937Y-115571240D01*
X183703475Y-115569308D01*
X183707540Y-115572892D01*
G37*
X179548239Y-113041020D02*
X179606923Y-113041597D01*
X179661907Y-113042484D01*
X179711602Y-113043679D01*
X179754423Y-113045184D01*
X179788782Y-113046998D01*
X179797375Y-113047616D01*
X180027469Y-113070458D01*
X180252916Y-113102759D01*
X180473969Y-113144600D01*
X180690886Y-113196064D01*
X180903921Y-113257230D01*
X181113331Y-113328179D01*
X181319371Y-113408994D01*
X181522297Y-113499754D01*
X181722365Y-113600540D01*
X181919830Y-113711435D01*
X181951083Y-113730051D01*
X182129792Y-113842569D01*
X182301212Y-113961300D01*
X182466508Y-114087158D01*
X182626846Y-114221055D01*
X182783392Y-114363904D01*
X182874887Y-114453193D01*
X182961278Y-114541256D01*
X183040828Y-114626087D01*
X183115639Y-114710104D01*
X183187819Y-114795727D01*
X183259472Y-114885375D01*
X183321133Y-114966012D01*
X183343554Y-114996322D01*
X183368010Y-115030181D01*
X183393834Y-115066592D01*
X183420359Y-115104560D01*
X183446917Y-115143088D01*
X183472840Y-115181182D01*
X183497460Y-115217845D01*
X183520111Y-115252082D01*
X183540123Y-115282897D01*
X183556831Y-115309295D01*
X183569566Y-115330279D01*
X183577661Y-115344854D01*
X183580448Y-115352024D01*
X183580269Y-115352520D01*
X183575360Y-115355312D01*
X183562098Y-115362665D01*
X183541419Y-115374065D01*
X183514259Y-115388999D01*
X183481553Y-115406953D01*
X183444235Y-115427414D01*
X183403241Y-115449866D01*
X183367802Y-115469260D01*
X183157333Y-115584391D01*
X183121739Y-115563332D01*
X183111107Y-115557092D01*
X183092181Y-115546037D01*
X183065820Y-115530668D01*
X183032882Y-115511485D01*
X182994227Y-115488988D01*
X182950713Y-115463676D01*
X182903199Y-115436048D01*
X182852544Y-115406606D01*
X182799606Y-115375847D01*
X182773937Y-115360937D01*
X182708990Y-115323212D01*
X182637157Y-115281484D01*
X182560586Y-115237001D01*
X182481421Y-115191008D01*
X182401808Y-115144752D01*
X182323893Y-115099479D01*
X182249821Y-115056438D01*
X182181738Y-115016873D01*
X182152166Y-114999687D01*
X182090670Y-114963947D01*
X182021939Y-114924003D01*
X181947889Y-114880969D01*
X181870436Y-114835958D01*
X181791495Y-114790083D01*
X181712982Y-114744458D01*
X181636812Y-114700196D01*
X181564903Y-114658410D01*
X181503937Y-114622984D01*
X181450990Y-114592218D01*
X181390083Y-114556826D01*
X181322403Y-114517499D01*
X181249141Y-114474929D01*
X181171485Y-114429805D01*
X181090626Y-114382820D01*
X181007753Y-114334665D01*
X180924054Y-114286030D01*
X180840720Y-114237607D01*
X180758940Y-114190086D01*
X180679903Y-114144160D01*
X180641395Y-114121784D01*
X180564596Y-114077157D01*
X180484729Y-114030746D01*
X180402953Y-113983223D01*
X180320428Y-113935263D01*
X180238310Y-113887539D01*
X180157761Y-113840725D01*
X180079938Y-113795494D01*
X180006000Y-113752519D01*
X179937106Y-113712474D01*
X179874415Y-113676033D01*
X179819086Y-113643869D01*
X179792498Y-113628411D01*
X179738668Y-113597213D01*
X179687391Y-113567685D01*
X179639418Y-113540246D01*
X179595497Y-113515316D01*
X179556378Y-113493315D01*
X179522810Y-113474663D01*
X179495543Y-113459779D01*
X179475326Y-113449082D01*
X179462907Y-113442993D01*
X179459123Y-113441710D01*
X179453635Y-113444549D01*
X179439618Y-113452271D01*
X179417724Y-113464506D01*
X179388605Y-113480881D01*
X179352915Y-113501025D01*
X179311305Y-113524564D01*
X179264428Y-113551128D01*
X179212937Y-113580344D01*
X179157484Y-113611840D01*
X179098722Y-113645243D01*
X179037304Y-113680183D01*
X178973881Y-113716286D01*
X178909108Y-113753182D01*
X178843635Y-113790497D01*
X178778116Y-113827860D01*
X178713203Y-113864898D01*
X178649549Y-113901241D01*
X178587807Y-113936515D01*
X178528628Y-113970348D01*
X178472666Y-114002369D01*
X178420573Y-114032206D01*
X178373002Y-114059486D01*
X178330605Y-114083837D01*
X178294035Y-114104888D01*
X178263944Y-114122266D01*
X178240985Y-114135599D01*
X178225810Y-114144516D01*
X178219073Y-114148643D01*
X178218811Y-114148845D01*
X178222356Y-114152385D01*
X178234073Y-114161083D01*
X178253198Y-114174426D01*
X178278963Y-114191904D01*
X178310605Y-114213006D01*
X178347356Y-114237222D01*
X178388453Y-114264040D01*
X178433128Y-114292949D01*
X178475728Y-114320310D01*
X178736939Y-114487505D01*
X178833477Y-114469447D01*
X178985808Y-114443696D01*
X179131239Y-114424824D01*
X179270865Y-114412776D01*
X179405780Y-114407500D01*
X179537082Y-114408941D01*
X179665864Y-114417044D01*
X179739166Y-114424695D01*
X179866114Y-114443705D01*
X179990654Y-114469940D01*
X180111628Y-114503002D01*
X180227877Y-114542496D01*
X180338241Y-114588027D01*
X180441560Y-114639199D01*
X180536676Y-114695616D01*
X180540854Y-114698343D01*
X180635209Y-114765658D01*
X180720484Y-114837878D01*
X180796569Y-114914846D01*
X180863355Y-114996408D01*
X180920731Y-115082409D01*
X180968589Y-115172694D01*
X181006818Y-115267107D01*
X181035309Y-115365495D01*
X181044985Y-115411354D01*
X181049165Y-115441349D01*
X181052154Y-115478681D01*
X181053957Y-115520855D01*
X181054577Y-115565379D01*
X181054019Y-115609760D01*
X181052285Y-115651505D01*
X181049379Y-115688120D01*
X181045305Y-115717112D01*
X181044537Y-115720917D01*
X181020129Y-115810171D01*
X180985589Y-115897739D01*
X180941293Y-115983180D01*
X180887619Y-116066057D01*
X180824942Y-116145928D01*
X180753640Y-116222355D01*
X180674090Y-116294899D01*
X180586669Y-116363118D01*
X180491754Y-116426575D01*
X180389722Y-116484829D01*
X180389121Y-116485145D01*
X180265367Y-116544277D01*
X180135899Y-116594562D01*
X180000881Y-116635957D01*
X179860478Y-116668415D01*
X179714852Y-116691894D01*
X179583062Y-116705051D01*
X179552165Y-116706769D01*
X179514187Y-116708080D01*
X179471791Y-116708965D01*
X179427641Y-116709405D01*
X179384398Y-116709384D01*
X179344728Y-116708883D01*
X179311291Y-116707885D01*
X179294666Y-116706994D01*
X179191835Y-116698964D01*
X179097377Y-116689235D01*
X179009166Y-116677435D01*
X178925075Y-116663190D01*
X178842977Y-116646128D01*
X178760745Y-116625878D01*
X178676253Y-116602065D01*
X178649267Y-116593901D01*
X178530320Y-116553683D01*
X178416635Y-116507837D01*
X178308744Y-116456746D01*
X178207181Y-116400793D01*
X178112479Y-116340364D01*
X178025171Y-116275841D01*
X177945791Y-116207609D01*
X177874870Y-116136052D01*
X177812942Y-116061554D01*
X177760540Y-115984498D01*
X177731732Y-115933011D01*
X177701730Y-115869784D01*
X177678985Y-115810280D01*
X177662675Y-115751384D01*
X177651982Y-115689981D01*
X177646086Y-115622955D01*
X177645247Y-115604500D01*
X177644759Y-115579397D01*
X177644874Y-115548342D01*
X177645511Y-115513240D01*
X177646592Y-115475996D01*
X177648038Y-115438514D01*
X177649767Y-115402700D01*
X177651702Y-115370458D01*
X177653761Y-115343695D01*
X177655867Y-115324313D01*
X177657284Y-115316323D01*
X177656913Y-115313817D01*
X177654366Y-115310317D01*
X177649080Y-115305469D01*
X177640489Y-115298919D01*
X177628028Y-115290313D01*
X177611132Y-115279296D01*
X177589237Y-115265515D01*
X177561778Y-115248616D01*
X177528190Y-115228244D01*
X177513095Y-115219176D01*
X178253854Y-115219176D01*
X178254917Y-115221126D01*
X178260430Y-115225318D01*
X178274219Y-115234214D01*
X178295371Y-115247269D01*
X178322975Y-115263935D01*
X178356118Y-115283667D01*
X178393888Y-115305917D01*
X178435371Y-115330139D01*
X178479655Y-115355788D01*
X178482328Y-115357329D01*
X178704510Y-115485437D01*
X178887949Y-115892695D01*
X178919068Y-115961597D01*
X178948285Y-116025920D01*
X178975340Y-116085106D01*
X178999973Y-116138598D01*
X179021921Y-116185837D01*
X179040925Y-116226266D01*
X179056723Y-116259325D01*
X179069055Y-116284458D01*
X179077659Y-116301106D01*
X179082275Y-116308711D01*
X179082581Y-116309017D01*
X179095308Y-116315225D01*
X179108946Y-116313730D01*
X179116527Y-116310013D01*
X179131996Y-116301168D01*
X179154349Y-116287809D01*
X179182587Y-116270552D01*
X179215706Y-116250012D01*
X179252705Y-116226804D01*
X179292582Y-116201544D01*
X179316548Y-116186250D01*
X179369697Y-116152239D01*
X179414633Y-116123462D01*
X179452057Y-116099443D01*
X179482671Y-116079710D01*
X179507174Y-116063789D01*
X179526268Y-116051205D01*
X179540654Y-116041486D01*
X179551032Y-116034158D01*
X179558102Y-116028747D01*
X179562567Y-116024779D01*
X179565126Y-116021781D01*
X179566480Y-116019279D01*
X179567330Y-116016799D01*
X179567355Y-116016721D01*
X179565907Y-116010119D01*
X179559656Y-115995904D01*
X179548479Y-115973845D01*
X179532251Y-115943711D01*
X179510846Y-115905271D01*
X179484142Y-115858295D01*
X179452013Y-115802552D01*
X179450446Y-115799848D01*
X179425611Y-115756886D01*
X179402398Y-115716499D01*
X179381352Y-115679657D01*
X179363023Y-115647328D01*
X179347957Y-115620481D01*
X179336701Y-115600086D01*
X179329803Y-115587110D01*
X179327802Y-115582769D01*
X179328493Y-115574318D01*
X179332414Y-115572625D01*
X179338717Y-115573516D01*
X179354574Y-115576131D01*
X179379123Y-115580320D01*
X179411501Y-115585930D01*
X179450846Y-115592811D01*
X179496296Y-115600812D01*
X179546989Y-115609782D01*
X179602063Y-115619569D01*
X179660655Y-115630022D01*
X179698891Y-115636865D01*
X180058136Y-115701229D01*
X180082536Y-115690768D01*
X180092247Y-115685661D01*
X180109577Y-115675555D01*
X180133404Y-115661165D01*
X180162601Y-115643208D01*
X180196046Y-115622400D01*
X180232614Y-115599458D01*
X180271180Y-115575096D01*
X180310621Y-115550032D01*
X180349812Y-115524981D01*
X180387629Y-115500659D01*
X180422947Y-115477783D01*
X180454643Y-115457068D01*
X180481591Y-115439231D01*
X180502669Y-115424987D01*
X180516751Y-115415053D01*
X180522140Y-115410772D01*
X180526787Y-115406371D01*
X180530382Y-115402546D01*
X180532224Y-115399146D01*
X180531615Y-115396024D01*
X180527856Y-115393029D01*
X180520246Y-115390013D01*
X180508087Y-115386826D01*
X180490680Y-115383320D01*
X180467324Y-115379346D01*
X180437321Y-115374754D01*
X180399971Y-115369396D01*
X180354574Y-115363121D01*
X180300433Y-115355782D01*
X180236846Y-115347229D01*
X180202187Y-115342571D01*
X180100771Y-115328920D01*
X179997017Y-115314924D01*
X179892504Y-115300797D01*
X179788811Y-115286755D01*
X179687517Y-115273010D01*
X179590200Y-115259778D01*
X179498440Y-115247272D01*
X179413814Y-115235708D01*
X179337902Y-115225298D01*
X179329062Y-115224083D01*
X179149145Y-115199345D01*
X178927751Y-115071177D01*
X178883232Y-115045484D01*
X178841211Y-115021386D01*
X178802634Y-114999414D01*
X178768444Y-114980099D01*
X178739586Y-114963971D01*
X178717003Y-114951562D01*
X178701641Y-114943401D01*
X178694443Y-114940021D01*
X178694346Y-114939994D01*
X178681546Y-114939990D01*
X178665852Y-114943922D01*
X178663588Y-114944813D01*
X178654542Y-114949589D01*
X178637877Y-114959368D01*
X178614769Y-114973398D01*
X178586396Y-114990930D01*
X178553933Y-115011213D01*
X178518558Y-115033495D01*
X178481447Y-115057025D01*
X178443778Y-115081054D01*
X178406726Y-115104829D01*
X178371469Y-115127601D01*
X178339183Y-115148618D01*
X178311045Y-115167129D01*
X178288232Y-115182384D01*
X178271921Y-115193632D01*
X178263287Y-115200121D01*
X178262854Y-115200515D01*
X178254193Y-115210993D01*
X178253854Y-115219176D01*
X177513095Y-115219176D01*
X177487907Y-115204045D01*
X177440366Y-115175666D01*
X177385001Y-115142753D01*
X177321247Y-115104951D01*
X177299557Y-115092104D01*
X177243010Y-115058699D01*
X177189025Y-115026962D01*
X177138303Y-114997294D01*
X177091542Y-114970098D01*
X177049443Y-114945776D01*
X177012707Y-114924732D01*
X176982034Y-114907366D01*
X176958123Y-114894081D01*
X176941674Y-114885280D01*
X176933389Y-114881365D01*
X176932570Y-114881212D01*
X176926932Y-114884382D01*
X176913122Y-114892574D01*
X176891987Y-114905275D01*
X176864375Y-114921971D01*
X176831133Y-114942147D01*
X176793107Y-114965291D01*
X176751147Y-114990887D01*
X176706099Y-115018422D01*
X176680256Y-115034241D01*
X176574897Y-115098768D01*
X176478186Y-115157989D01*
X176389749Y-115212131D01*
X176309212Y-115261419D01*
X176236199Y-115306076D01*
X176170335Y-115346329D01*
X176111246Y-115382403D01*
X176058556Y-115414522D01*
X176011892Y-115442912D01*
X175970877Y-115467798D01*
X175935138Y-115489404D01*
X175904300Y-115507957D01*
X175877987Y-115523681D01*
X175855825Y-115536801D01*
X175837438Y-115547542D01*
X175822453Y-115556130D01*
X175810494Y-115562789D01*
X175801187Y-115567745D01*
X175794156Y-115571222D01*
X175789027Y-115573447D01*
X175785425Y-115574643D01*
X175782975Y-115575036D01*
X175781302Y-115574851D01*
X175780507Y-115574552D01*
X175772797Y-115570239D01*
X175757647Y-115561119D01*
X175736135Y-115547879D01*
X175709340Y-115531204D01*
X175678341Y-115511780D01*
X175644217Y-115490294D01*
X175608047Y-115467429D01*
X175570910Y-115443873D01*
X175533885Y-115420311D01*
X175498052Y-115397429D01*
X175464488Y-115375913D01*
X175434274Y-115356447D01*
X175408487Y-115339719D01*
X175388208Y-115326414D01*
X175374514Y-115317218D01*
X175368485Y-115312816D01*
X175368294Y-115312567D01*
X175371112Y-115307432D01*
X175379102Y-115294639D01*
X175391531Y-115275315D01*
X175407669Y-115250584D01*
X175426783Y-115221575D01*
X175448143Y-115189412D01*
X175454239Y-115180275D01*
X175584831Y-114994105D01*
X175722925Y-114815357D01*
X175868356Y-114644158D01*
X176020955Y-114480640D01*
X176180554Y-114324931D01*
X176346988Y-114177160D01*
X176520087Y-114037458D01*
X176699685Y-113905953D01*
X176885615Y-113782776D01*
X177077708Y-113668054D01*
X177275798Y-113561918D01*
X177479716Y-113464498D01*
X177689297Y-113375921D01*
X177881213Y-113304365D01*
X178082197Y-113239229D01*
X178287743Y-113182985D01*
X178498193Y-113135565D01*
X178713891Y-113096896D01*
X178935179Y-113066910D01*
X179135916Y-113047562D01*
X179167091Y-113045658D01*
X179207258Y-113044065D01*
X179254830Y-113042782D01*
X179308221Y-113041810D01*
X179365844Y-113041148D01*
X179426112Y-113040795D01*
X179487439Y-113040753D01*
X179548239Y-113041020D01*
G36*
X179548239Y-113041020D02*
G01*
X179606923Y-113041597D01*
X179661907Y-113042484D01*
X179711602Y-113043679D01*
X179754423Y-113045184D01*
X179788782Y-113046998D01*
X179797375Y-113047616D01*
X180027469Y-113070458D01*
X180252916Y-113102759D01*
X180473969Y-113144600D01*
X180690886Y-113196064D01*
X180903921Y-113257230D01*
X181113331Y-113328179D01*
X181319371Y-113408994D01*
X181522297Y-113499754D01*
X181722365Y-113600540D01*
X181919830Y-113711435D01*
X181951083Y-113730051D01*
X182129792Y-113842569D01*
X182301212Y-113961300D01*
X182466508Y-114087158D01*
X182626846Y-114221055D01*
X182783392Y-114363904D01*
X182874887Y-114453193D01*
X182961278Y-114541256D01*
X183040828Y-114626087D01*
X183115639Y-114710104D01*
X183187819Y-114795727D01*
X183259472Y-114885375D01*
X183321133Y-114966012D01*
X183343554Y-114996322D01*
X183368010Y-115030181D01*
X183393834Y-115066592D01*
X183420359Y-115104560D01*
X183446917Y-115143088D01*
X183472840Y-115181182D01*
X183497460Y-115217845D01*
X183520111Y-115252082D01*
X183540123Y-115282897D01*
X183556831Y-115309295D01*
X183569566Y-115330279D01*
X183577661Y-115344854D01*
X183580448Y-115352024D01*
X183580269Y-115352520D01*
X183575360Y-115355312D01*
X183562098Y-115362665D01*
X183541419Y-115374065D01*
X183514259Y-115388999D01*
X183481553Y-115406953D01*
X183444235Y-115427414D01*
X183403241Y-115449866D01*
X183367802Y-115469260D01*
X183157333Y-115584391D01*
X183121739Y-115563332D01*
X183111107Y-115557092D01*
X183092181Y-115546037D01*
X183065820Y-115530668D01*
X183032882Y-115511485D01*
X182994227Y-115488988D01*
X182950713Y-115463676D01*
X182903199Y-115436048D01*
X182852544Y-115406606D01*
X182799606Y-115375847D01*
X182773937Y-115360937D01*
X182708990Y-115323212D01*
X182637157Y-115281484D01*
X182560586Y-115237001D01*
X182481421Y-115191008D01*
X182401808Y-115144752D01*
X182323893Y-115099479D01*
X182249821Y-115056438D01*
X182181738Y-115016873D01*
X182152166Y-114999687D01*
X182090670Y-114963947D01*
X182021939Y-114924003D01*
X181947889Y-114880969D01*
X181870436Y-114835958D01*
X181791495Y-114790083D01*
X181712982Y-114744458D01*
X181636812Y-114700196D01*
X181564903Y-114658410D01*
X181503937Y-114622984D01*
X181450990Y-114592218D01*
X181390083Y-114556826D01*
X181322403Y-114517499D01*
X181249141Y-114474929D01*
X181171485Y-114429805D01*
X181090626Y-114382820D01*
X181007753Y-114334665D01*
X180924054Y-114286030D01*
X180840720Y-114237607D01*
X180758940Y-114190086D01*
X180679903Y-114144160D01*
X180641395Y-114121784D01*
X180564596Y-114077157D01*
X180484729Y-114030746D01*
X180402953Y-113983223D01*
X180320428Y-113935263D01*
X180238310Y-113887539D01*
X180157761Y-113840725D01*
X180079938Y-113795494D01*
X180006000Y-113752519D01*
X179937106Y-113712474D01*
X179874415Y-113676033D01*
X179819086Y-113643869D01*
X179792498Y-113628411D01*
X179738668Y-113597213D01*
X179687391Y-113567685D01*
X179639418Y-113540246D01*
X179595497Y-113515316D01*
X179556378Y-113493315D01*
X179522810Y-113474663D01*
X179495543Y-113459779D01*
X179475326Y-113449082D01*
X179462907Y-113442993D01*
X179459123Y-113441710D01*
X179453635Y-113444549D01*
X179439618Y-113452271D01*
X179417724Y-113464506D01*
X179388605Y-113480881D01*
X179352915Y-113501025D01*
X179311305Y-113524564D01*
X179264428Y-113551128D01*
X179212937Y-113580344D01*
X179157484Y-113611840D01*
X179098722Y-113645243D01*
X179037304Y-113680183D01*
X178973881Y-113716286D01*
X178909108Y-113753182D01*
X178843635Y-113790497D01*
X178778116Y-113827860D01*
X178713203Y-113864898D01*
X178649549Y-113901241D01*
X178587807Y-113936515D01*
X178528628Y-113970348D01*
X178472666Y-114002369D01*
X178420573Y-114032206D01*
X178373002Y-114059486D01*
X178330605Y-114083837D01*
X178294035Y-114104888D01*
X178263944Y-114122266D01*
X178240985Y-114135599D01*
X178225810Y-114144516D01*
X178219073Y-114148643D01*
X178218811Y-114148845D01*
X178222356Y-114152385D01*
X178234073Y-114161083D01*
X178253198Y-114174426D01*
X178278963Y-114191904D01*
X178310605Y-114213006D01*
X178347356Y-114237222D01*
X178388453Y-114264040D01*
X178433128Y-114292949D01*
X178475728Y-114320310D01*
X178736939Y-114487505D01*
X178833477Y-114469447D01*
X178985808Y-114443696D01*
X179131239Y-114424824D01*
X179270865Y-114412776D01*
X179405780Y-114407500D01*
X179537082Y-114408941D01*
X179665864Y-114417044D01*
X179739166Y-114424695D01*
X179866114Y-114443705D01*
X179990654Y-114469940D01*
X180111628Y-114503002D01*
X180227877Y-114542496D01*
X180338241Y-114588027D01*
X180441560Y-114639199D01*
X180536676Y-114695616D01*
X180540854Y-114698343D01*
X180635209Y-114765658D01*
X180720484Y-114837878D01*
X180796569Y-114914846D01*
X180863355Y-114996408D01*
X180920731Y-115082409D01*
X180968589Y-115172694D01*
X181006818Y-115267107D01*
X181035309Y-115365495D01*
X181044985Y-115411354D01*
X181049165Y-115441349D01*
X181052154Y-115478681D01*
X181053957Y-115520855D01*
X181054577Y-115565379D01*
X181054019Y-115609760D01*
X181052285Y-115651505D01*
X181049379Y-115688120D01*
X181045305Y-115717112D01*
X181044537Y-115720917D01*
X181020129Y-115810171D01*
X180985589Y-115897739D01*
X180941293Y-115983180D01*
X180887619Y-116066057D01*
X180824942Y-116145928D01*
X180753640Y-116222355D01*
X180674090Y-116294899D01*
X180586669Y-116363118D01*
X180491754Y-116426575D01*
X180389722Y-116484829D01*
X180389121Y-116485145D01*
X180265367Y-116544277D01*
X180135899Y-116594562D01*
X180000881Y-116635957D01*
X179860478Y-116668415D01*
X179714852Y-116691894D01*
X179583062Y-116705051D01*
X179552165Y-116706769D01*
X179514187Y-116708080D01*
X179471791Y-116708965D01*
X179427641Y-116709405D01*
X179384398Y-116709384D01*
X179344728Y-116708883D01*
X179311291Y-116707885D01*
X179294666Y-116706994D01*
X179191835Y-116698964D01*
X179097377Y-116689235D01*
X179009166Y-116677435D01*
X178925075Y-116663190D01*
X178842977Y-116646128D01*
X178760745Y-116625878D01*
X178676253Y-116602065D01*
X178649267Y-116593901D01*
X178530320Y-116553683D01*
X178416635Y-116507837D01*
X178308744Y-116456746D01*
X178207181Y-116400793D01*
X178112479Y-116340364D01*
X178025171Y-116275841D01*
X177945791Y-116207609D01*
X177874870Y-116136052D01*
X177812942Y-116061554D01*
X177760540Y-115984498D01*
X177731732Y-115933011D01*
X177701730Y-115869784D01*
X177678985Y-115810280D01*
X177662675Y-115751384D01*
X177651982Y-115689981D01*
X177646086Y-115622955D01*
X177645247Y-115604500D01*
X177644759Y-115579397D01*
X177644874Y-115548342D01*
X177645511Y-115513240D01*
X177646592Y-115475996D01*
X177648038Y-115438514D01*
X177649767Y-115402700D01*
X177651702Y-115370458D01*
X177653761Y-115343695D01*
X177655867Y-115324313D01*
X177657284Y-115316323D01*
X177656913Y-115313817D01*
X177654366Y-115310317D01*
X177649080Y-115305469D01*
X177640489Y-115298919D01*
X177628028Y-115290313D01*
X177611132Y-115279296D01*
X177589237Y-115265515D01*
X177561778Y-115248616D01*
X177528190Y-115228244D01*
X177513095Y-115219176D01*
X178253854Y-115219176D01*
X178254917Y-115221126D01*
X178260430Y-115225318D01*
X178274219Y-115234214D01*
X178295371Y-115247269D01*
X178322975Y-115263935D01*
X178356118Y-115283667D01*
X178393888Y-115305917D01*
X178435371Y-115330139D01*
X178479655Y-115355788D01*
X178482328Y-115357329D01*
X178704510Y-115485437D01*
X178887949Y-115892695D01*
X178919068Y-115961597D01*
X178948285Y-116025920D01*
X178975340Y-116085106D01*
X178999973Y-116138598D01*
X179021921Y-116185837D01*
X179040925Y-116226266D01*
X179056723Y-116259325D01*
X179069055Y-116284458D01*
X179077659Y-116301106D01*
X179082275Y-116308711D01*
X179082581Y-116309017D01*
X179095308Y-116315225D01*
X179108946Y-116313730D01*
X179116527Y-116310013D01*
X179131996Y-116301168D01*
X179154349Y-116287809D01*
X179182587Y-116270552D01*
X179215706Y-116250012D01*
X179252705Y-116226804D01*
X179292582Y-116201544D01*
X179316548Y-116186250D01*
X179369697Y-116152239D01*
X179414633Y-116123462D01*
X179452057Y-116099443D01*
X179482671Y-116079710D01*
X179507174Y-116063789D01*
X179526268Y-116051205D01*
X179540654Y-116041486D01*
X179551032Y-116034158D01*
X179558102Y-116028747D01*
X179562567Y-116024779D01*
X179565126Y-116021781D01*
X179566480Y-116019279D01*
X179567330Y-116016799D01*
X179567355Y-116016721D01*
X179565907Y-116010119D01*
X179559656Y-115995904D01*
X179548479Y-115973845D01*
X179532251Y-115943711D01*
X179510846Y-115905271D01*
X179484142Y-115858295D01*
X179452013Y-115802552D01*
X179450446Y-115799848D01*
X179425611Y-115756886D01*
X179402398Y-115716499D01*
X179381352Y-115679657D01*
X179363023Y-115647328D01*
X179347957Y-115620481D01*
X179336701Y-115600086D01*
X179329803Y-115587110D01*
X179327802Y-115582769D01*
X179328493Y-115574318D01*
X179332414Y-115572625D01*
X179338717Y-115573516D01*
X179354574Y-115576131D01*
X179379123Y-115580320D01*
X179411501Y-115585930D01*
X179450846Y-115592811D01*
X179496296Y-115600812D01*
X179546989Y-115609782D01*
X179602063Y-115619569D01*
X179660655Y-115630022D01*
X179698891Y-115636865D01*
X180058136Y-115701229D01*
X180082536Y-115690768D01*
X180092247Y-115685661D01*
X180109577Y-115675555D01*
X180133404Y-115661165D01*
X180162601Y-115643208D01*
X180196046Y-115622400D01*
X180232614Y-115599458D01*
X180271180Y-115575096D01*
X180310621Y-115550032D01*
X180349812Y-115524981D01*
X180387629Y-115500659D01*
X180422947Y-115477783D01*
X180454643Y-115457068D01*
X180481591Y-115439231D01*
X180502669Y-115424987D01*
X180516751Y-115415053D01*
X180522140Y-115410772D01*
X180526787Y-115406371D01*
X180530382Y-115402546D01*
X180532224Y-115399146D01*
X180531615Y-115396024D01*
X180527856Y-115393029D01*
X180520246Y-115390013D01*
X180508087Y-115386826D01*
X180490680Y-115383320D01*
X180467324Y-115379346D01*
X180437321Y-115374754D01*
X180399971Y-115369396D01*
X180354574Y-115363121D01*
X180300433Y-115355782D01*
X180236846Y-115347229D01*
X180202187Y-115342571D01*
X180100771Y-115328920D01*
X179997017Y-115314924D01*
X179892504Y-115300797D01*
X179788811Y-115286755D01*
X179687517Y-115273010D01*
X179590200Y-115259778D01*
X179498440Y-115247272D01*
X179413814Y-115235708D01*
X179337902Y-115225298D01*
X179329062Y-115224083D01*
X179149145Y-115199345D01*
X178927751Y-115071177D01*
X178883232Y-115045484D01*
X178841211Y-115021386D01*
X178802634Y-114999414D01*
X178768444Y-114980099D01*
X178739586Y-114963971D01*
X178717003Y-114951562D01*
X178701641Y-114943401D01*
X178694443Y-114940021D01*
X178694346Y-114939994D01*
X178681546Y-114939990D01*
X178665852Y-114943922D01*
X178663588Y-114944813D01*
X178654542Y-114949589D01*
X178637877Y-114959368D01*
X178614769Y-114973398D01*
X178586396Y-114990930D01*
X178553933Y-115011213D01*
X178518558Y-115033495D01*
X178481447Y-115057025D01*
X178443778Y-115081054D01*
X178406726Y-115104829D01*
X178371469Y-115127601D01*
X178339183Y-115148618D01*
X178311045Y-115167129D01*
X178288232Y-115182384D01*
X178271921Y-115193632D01*
X178263287Y-115200121D01*
X178262854Y-115200515D01*
X178254193Y-115210993D01*
X178253854Y-115219176D01*
X177513095Y-115219176D01*
X177487907Y-115204045D01*
X177440366Y-115175666D01*
X177385001Y-115142753D01*
X177321247Y-115104951D01*
X177299557Y-115092104D01*
X177243010Y-115058699D01*
X177189025Y-115026962D01*
X177138303Y-114997294D01*
X177091542Y-114970098D01*
X177049443Y-114945776D01*
X177012707Y-114924732D01*
X176982034Y-114907366D01*
X176958123Y-114894081D01*
X176941674Y-114885280D01*
X176933389Y-114881365D01*
X176932570Y-114881212D01*
X176926932Y-114884382D01*
X176913122Y-114892574D01*
X176891987Y-114905275D01*
X176864375Y-114921971D01*
X176831133Y-114942147D01*
X176793107Y-114965291D01*
X176751147Y-114990887D01*
X176706099Y-115018422D01*
X176680256Y-115034241D01*
X176574897Y-115098768D01*
X176478186Y-115157989D01*
X176389749Y-115212131D01*
X176309212Y-115261419D01*
X176236199Y-115306076D01*
X176170335Y-115346329D01*
X176111246Y-115382403D01*
X176058556Y-115414522D01*
X176011892Y-115442912D01*
X175970877Y-115467798D01*
X175935138Y-115489404D01*
X175904300Y-115507957D01*
X175877987Y-115523681D01*
X175855825Y-115536801D01*
X175837438Y-115547542D01*
X175822453Y-115556130D01*
X175810494Y-115562789D01*
X175801187Y-115567745D01*
X175794156Y-115571222D01*
X175789027Y-115573447D01*
X175785425Y-115574643D01*
X175782975Y-115575036D01*
X175781302Y-115574851D01*
X175780507Y-115574552D01*
X175772797Y-115570239D01*
X175757647Y-115561119D01*
X175736135Y-115547879D01*
X175709340Y-115531204D01*
X175678341Y-115511780D01*
X175644217Y-115490294D01*
X175608047Y-115467429D01*
X175570910Y-115443873D01*
X175533885Y-115420311D01*
X175498052Y-115397429D01*
X175464488Y-115375913D01*
X175434274Y-115356447D01*
X175408487Y-115339719D01*
X175388208Y-115326414D01*
X175374514Y-115317218D01*
X175368485Y-115312816D01*
X175368294Y-115312567D01*
X175371112Y-115307432D01*
X175379102Y-115294639D01*
X175391531Y-115275315D01*
X175407669Y-115250584D01*
X175426783Y-115221575D01*
X175448143Y-115189412D01*
X175454239Y-115180275D01*
X175584831Y-114994105D01*
X175722925Y-114815357D01*
X175868356Y-114644158D01*
X176020955Y-114480640D01*
X176180554Y-114324931D01*
X176346988Y-114177160D01*
X176520087Y-114037458D01*
X176699685Y-113905953D01*
X176885615Y-113782776D01*
X177077708Y-113668054D01*
X177275798Y-113561918D01*
X177479716Y-113464498D01*
X177689297Y-113375921D01*
X177881213Y-113304365D01*
X178082197Y-113239229D01*
X178287743Y-113182985D01*
X178498193Y-113135565D01*
X178713891Y-113096896D01*
X178935179Y-113066910D01*
X179135916Y-113047562D01*
X179167091Y-113045658D01*
X179207258Y-113044065D01*
X179254830Y-113042782D01*
X179308221Y-113041810D01*
X179365844Y-113041148D01*
X179426112Y-113040795D01*
X179487439Y-113040753D01*
X179548239Y-113041020D01*
G37*
D13*
%TO.C,Q3*%
X122985000Y-117397500D02*
X122985000Y-115722500D01*
X122985000Y-117397500D02*
X122985000Y-118047500D01*
X119865000Y-117397500D02*
X119865000Y-116747500D01*
X119865000Y-117397500D02*
X119865000Y-118047500D01*
%TO.C,R11*%
X176557500Y-105657776D02*
X176557500Y-106167224D01*
X175512500Y-105657776D02*
X175512500Y-106167224D01*
%TO.C,Q4*%
X120500000Y-107842500D02*
X120500000Y-109517500D01*
X120500000Y-107842500D02*
X120500000Y-107192500D01*
X123620000Y-107842500D02*
X123620000Y-108492500D01*
X123620000Y-107842500D02*
X123620000Y-107192500D01*
%TO.C,R12*%
X174867776Y-110192500D02*
X175377224Y-110192500D01*
X174867776Y-111237500D02*
X175377224Y-111237500D01*
%TO.C,J7*%
X127080000Y-90455000D02*
X127080000Y-89125000D01*
X128410000Y-90455000D02*
X127080000Y-90455000D01*
X129680000Y-90455000D02*
X132280000Y-90455000D01*
X129680000Y-90455000D02*
X129680000Y-87795000D01*
X132280000Y-90455000D02*
X132280000Y-87795000D01*
X129680000Y-87795000D02*
X132280000Y-87795000D01*
%TO.C,D7*%
X126745000Y-96490000D02*
X126745000Y-93190000D01*
X126745000Y-96490000D02*
X121235000Y-96490000D01*
X126745000Y-93190000D02*
X121235000Y-93190000D01*
%TO.C,R2*%
X176557500Y-98672776D02*
X176557500Y-99182224D01*
X175512500Y-98672776D02*
X175512500Y-99182224D01*
%TO.C,D4*%
X133095000Y-117445000D02*
X133095000Y-114145000D01*
X133095000Y-117445000D02*
X127585000Y-117445000D01*
X133095000Y-114145000D02*
X127585000Y-114145000D01*
%TO.C,D3*%
X177982000Y-95260000D02*
X177982000Y-96960000D01*
X177982000Y-95260000D02*
X181242000Y-95260000D01*
X177982000Y-96960000D02*
X181242000Y-96960000D01*
%TO.C,R10*%
X121402224Y-113142500D02*
X120892776Y-113142500D01*
X121402224Y-112097500D02*
X120892776Y-112097500D01*
%TO.C,R1*%
X180592500Y-92554724D02*
X180592500Y-92045276D01*
X181637500Y-92554724D02*
X181637500Y-92045276D01*
%TO.C,D5*%
X165000000Y-111605000D02*
X165000000Y-114905000D01*
X165000000Y-111605000D02*
X170510000Y-111605000D01*
X165000000Y-114905000D02*
X170510000Y-114905000D01*
%TO.C,Q2*%
X176972500Y-93860000D02*
X178647500Y-93860000D01*
X176972500Y-93860000D02*
X176322500Y-93860000D01*
X176972500Y-90740000D02*
X177622500Y-90740000D01*
X176972500Y-90740000D02*
X176322500Y-90740000D01*
%TO.C,J3*%
X147400000Y-124110000D02*
X147400000Y-122780000D01*
X148730000Y-124110000D02*
X147400000Y-124110000D01*
X150000000Y-124110000D02*
X155140000Y-124110000D01*
X150000000Y-124110000D02*
X150000000Y-121450000D01*
X155140000Y-124110000D02*
X155140000Y-121450000D01*
X150000000Y-121450000D02*
X155140000Y-121450000D01*
%TO.C,R4*%
X127027500Y-107562776D02*
X127027500Y-108072224D01*
X125982500Y-107562776D02*
X125982500Y-108072224D01*
%TO.C,D1*%
X165000000Y-107160000D02*
X165000000Y-110460000D01*
X165000000Y-107160000D02*
X170510000Y-107160000D01*
X165000000Y-110460000D02*
X170510000Y-110460000D01*
%TO.C,J2*%
X126050000Y-120670000D02*
X126050000Y-121920000D01*
X126350000Y-120970000D02*
X126350000Y-125690000D01*
X126350000Y-122280000D02*
X126960000Y-122280000D01*
X126350000Y-123580000D02*
X126960000Y-123580000D01*
X126350000Y-125690000D02*
X132470000Y-125690000D01*
X126960000Y-121580000D02*
X126960000Y-125080000D01*
X126960000Y-125080000D02*
X131860000Y-125080000D01*
X127300000Y-120670000D02*
X126050000Y-120670000D01*
X127810000Y-120770000D02*
X127810000Y-120970000D01*
X128110000Y-120770000D02*
X127810000Y-120770000D01*
X128110000Y-120870000D02*
X127810000Y-120870000D01*
X128110000Y-120970000D02*
X128110000Y-120770000D01*
X128910000Y-120970000D02*
X128910000Y-121580000D01*
X128910000Y-121580000D02*
X126960000Y-121580000D01*
X129310000Y-124580000D02*
X129510000Y-124580000D01*
X129310000Y-125080000D02*
X129310000Y-124580000D01*
X129410000Y-125080000D02*
X129410000Y-124580000D01*
X129510000Y-124580000D02*
X129510000Y-125080000D01*
X129910000Y-121580000D02*
X129910000Y-120970000D01*
X131860000Y-121580000D02*
X129910000Y-121580000D01*
X131860000Y-125080000D02*
X131860000Y-121580000D01*
X132470000Y-120970000D02*
X126350000Y-120970000D01*
X132470000Y-122280000D02*
X131860000Y-122280000D01*
X132470000Y-123580000D02*
X131860000Y-123580000D01*
X132470000Y-125690000D02*
X132470000Y-120970000D01*
%TO.C,R6*%
X132117224Y-104887500D02*
X131607776Y-104887500D01*
X132117224Y-103842500D02*
X131607776Y-103842500D01*
%TO.C,J1*%
X164825000Y-98185000D02*
X164825000Y-100425000D01*
X164825000Y-100425000D02*
X166825000Y-100425000D01*
X165065000Y-86065000D02*
X165065000Y-87385000D01*
X165065000Y-86065000D02*
X172805000Y-86065000D01*
X165065000Y-90865000D02*
X165065000Y-92465000D01*
X165065000Y-95945000D02*
X165065000Y-100185000D01*
X165065000Y-100185000D02*
X172805000Y-100185000D01*
X172805000Y-86065000D02*
X172805000Y-100185000D01*
%TO.C,D6*%
X165000000Y-116050000D02*
X165000000Y-119350000D01*
X165000000Y-116050000D02*
X170510000Y-116050000D01*
X165000000Y-119350000D02*
X170510000Y-119350000D01*
%TO.C,J5*%
X167720000Y-124110000D02*
X167720000Y-122780000D01*
X169050000Y-124110000D02*
X167720000Y-124110000D01*
X170320000Y-124110000D02*
X172920000Y-124110000D01*
X170320000Y-124110000D02*
X170320000Y-121450000D01*
X172920000Y-124110000D02*
X172920000Y-121450000D01*
X170320000Y-121450000D02*
X172920000Y-121450000D01*
%TO.C,D8*%
X178106000Y-111475000D02*
X179806000Y-111475000D01*
X178106000Y-111475000D02*
X178106000Y-108215000D01*
X179806000Y-111475000D02*
X179806000Y-108215000D01*
%TO.C,R7*%
X132117224Y-101712500D02*
X131607776Y-101712500D01*
X132117224Y-100667500D02*
X131607776Y-100667500D01*
%TO.C,J4*%
X134700000Y-124110000D02*
X134700000Y-122780000D01*
X136030000Y-124110000D02*
X134700000Y-124110000D01*
X137300000Y-124110000D02*
X144980000Y-124110000D01*
X137300000Y-124110000D02*
X137300000Y-121450000D01*
X144980000Y-124110000D02*
X144980000Y-121450000D01*
X137300000Y-121450000D02*
X144980000Y-121450000D01*
%TO.C,R9*%
X132117224Y-95362500D02*
X131607776Y-95362500D01*
X132117224Y-94317500D02*
X131607776Y-94317500D01*
%TO.C,Q1*%
X180147500Y-104655000D02*
X181822500Y-104655000D01*
X180147500Y-104655000D02*
X179497500Y-104655000D01*
X180147500Y-101535000D02*
X180797500Y-101535000D01*
X180147500Y-101535000D02*
X179497500Y-101535000D01*
%TO.C,Q5*%
X120500000Y-101492500D02*
X120500000Y-103167500D01*
X120500000Y-101492500D02*
X120500000Y-100842500D01*
X123620000Y-101492500D02*
X123620000Y-102142500D01*
X123620000Y-101492500D02*
X123620000Y-100842500D01*
%TO.C,D2*%
X165000000Y-102715000D02*
X165000000Y-106015000D01*
X165000000Y-102715000D02*
X170510000Y-102715000D01*
X165000000Y-106015000D02*
X170510000Y-106015000D01*
%TO.C,C1*%
X177858767Y-88365000D02*
X177566233Y-88365000D01*
X177858767Y-87345000D02*
X177566233Y-87345000D01*
%TO.C,R3*%
X179947776Y-98762500D02*
X180457224Y-98762500D01*
X179947776Y-99807500D02*
X180457224Y-99807500D01*
%TO.C,R5*%
X127027500Y-101212776D02*
X127027500Y-101722224D01*
X125982500Y-101212776D02*
X125982500Y-101722224D01*
%TO.C,J6*%
X157560000Y-124110000D02*
X157560000Y-122780000D01*
X158890000Y-124110000D02*
X157560000Y-124110000D01*
X160160000Y-124110000D02*
X165300000Y-124110000D01*
X160160000Y-124110000D02*
X160160000Y-121450000D01*
X165300000Y-124110000D02*
X165300000Y-121450000D01*
X160160000Y-121450000D02*
X165300000Y-121450000D01*
%TO.C,D9*%
X180392000Y-111475000D02*
X182092000Y-111475000D01*
X180392000Y-111475000D02*
X180392000Y-108215000D01*
X182092000Y-111475000D02*
X182092000Y-108215000D01*
%TO.C,R8*%
X132117224Y-98537500D02*
X131607776Y-98537500D01*
X132117224Y-97492500D02*
X131607776Y-97492500D01*
%TO.C,U1*%
X162930000Y-92130000D02*
X162930000Y-117560000D01*
X162930000Y-92130000D02*
X160390000Y-92130000D01*
X160390000Y-92130000D02*
X160390000Y-85230000D01*
X160390000Y-85230000D02*
X137070000Y-85230000D01*
X139190000Y-119690000D02*
X160800000Y-119690000D01*
X137070000Y-85230000D02*
X137070000Y-117560000D01*
X160800000Y-119690000D02*
G75*
G03*
X162930000Y-117560000I-2J2130002D01*
G01*
X137070000Y-117560000D02*
G75*
G03*
X139200000Y-119690000I2130000J0D01*
G01*
D11*
X163970000Y-111985000D02*
X163335000Y-111350000D01*
X163970000Y-110715000D01*
X163970000Y-111985000D01*
G36*
X163970000Y-111985000D02*
G01*
X163335000Y-111350000D01*
X163970000Y-110715000D01*
X163970000Y-111985000D01*
G37*
%TD*%
M02*
