M48
; DRILL file {KiCad 7.0.5-0} date 2023 July 09, Sunday 14:36:30
; FORMAT={-:-/ absolute / inch / decimal}
; #@! TF.CreationDate,2023-07-09T14:36:30+02:00
; #@! TF.GenerationSoftware,Kicad,Pcbnew,7.0.5-0
; #@! TF.FileFunction,Plated,1,2,PTH
FMAT,2
INCH
; #@! TA.AperFunction,Plated,PTH,ViaDrill
T1C0.0157
; #@! TA.AperFunction,Plated,PTH,ViaDrill
T2C0.0236
; #@! TA.AperFunction,Plated,PTH,ComponentDrill
T3C0.0295
; #@! TA.AperFunction,Plated,PTH,ComponentDrill
T4C0.0394
; #@! TA.AperFunction,Plated,PTH,ComponentDrill
T5C0.0472
%
G90
G05
T1
X4.6805Y-4.1839
X4.7305Y-4.1839
X4.8805Y-4.4339
X4.9055Y-4.1839
X5.3555Y-4.0589
X6.0555Y-4.0839
X6.4555Y-4.0589
X6.8555Y-3.7339
X6.8805Y-4.2839
X6.9805Y-3.7839
X6.9805Y-4.0089
X7.1293Y-3.9589
X7.2305Y-3.9589
T2
X4.6555Y-4.7589
X4.7055Y-3.5089
X5.0555Y-3.6589
X5.6055Y-3.4839
X5.7555Y-4.7439
X6.7555Y-3.6839
X7.1955Y-4.7139
T3
X5.0555Y-4.8339
X5.1343Y-4.8339
T4
X5.0555Y-3.5089
X5.1555Y-3.5089
X5.3555Y-4.8339
X5.4555Y-3.6839
X5.4555Y-3.7839
X5.4555Y-3.8839
X5.4555Y-3.9839
X5.4555Y-4.0839
X5.4555Y-4.1839
X5.4555Y-4.2839
X5.4555Y-4.3839
X5.4555Y-4.8339
X5.5555Y-4.8339
X5.6555Y-4.8339
X5.8555Y-4.8339
X5.9555Y-4.8339
X6.0555Y-4.8339
X6.2555Y-4.8339
X6.3555Y-3.6839
X6.3555Y-3.7839
X6.3555Y-3.8839
X6.3555Y-3.9839
X6.3555Y-4.0839
X6.3555Y-4.1839
X6.3555Y-4.2839
X6.3555Y-4.3839
X6.3555Y-4.8339
X6.4555Y-4.8339
X6.6555Y-4.8339
X6.7555Y-4.8339
T5
X6.5305Y-3.5089
X6.5305Y-3.7089
X6.6305Y-3.5089
X6.6305Y-3.7089
T0
M30
